{"glyphs":{"0":{"ha":806,"x_min":0,"x_max":0,"o":"m 403 1008 b 81 490 156 1008 81 746 b 403 -25 81 235 156 -25 b 725 490 647 -25 725 235 b 403 1008 725 746 647 1008 z m 403 924 b 624 490 575 924 624 686 b 403 61 624 294 575 61 b 182 490 228 61 182 294 b 403 924 182 686 228 924 z "},"1":{"ha":806,"x_min":0,"x_max":0,"o":"m 497 983 l 408 983 l 158 778 l 219 708 l 397 860 l 397 0 l 497 0 z "},"2":{"ha":806,"x_min":0,"x_max":0,"o":"m 700 89 l 179 89 l 533 440 b 693 738 619 526 693 611 b 397 1008 693 917 556 1008 b 96 768 243 1008 124 907 l 194 749 b 397 924 215 850 292 924 b 592 736 503 924 592 850 b 474 511 592 646 533 572 l 71 104 l 71 0 l 700 0 z "},"3":{"ha":806,"x_min":0,"x_max":0,"o":"m 297 472 l 340 472 b 596 272 469 472 596 421 b 379 61 596 140 492 61 b 163 211 279 61 196 118 l 68 176 b 379 -25 124 47 236 -25 b 696 272 550 -25 696 85 b 497 517 696 404 610 493 l 497 519 b 668 744 594 546 668 629 b 381 1008 668 915 535 1008 b 103 853 261 1008 164 958 l 188 808 b 375 924 226 883 293 924 b 569 739 481 924 569 849 b 340 558 569 608 467 558 l 297 558 z "},"4":{"ha":806,"x_min":0,"x_max":0,"o":"m 606 983 l 475 983 l 58 335 l 58 238 l 508 238 l 508 0 l 606 0 l 606 238 l 750 238 l 750 325 l 606 325 z m 508 325 l 163 325 l 506 871 l 508 871 z "},"5":{"ha":806,"x_min":0,"x_max":0,"o":"m 660 983 l 158 983 l 149 476 b 353 531 211 510 282 531 b 597 294 493 531 597 440 b 367 61 597 161 500 61 b 168 194 281 61 203 114 l 78 154 b 372 -25 132 46 231 -25 b 699 304 567 -25 699 114 b 379 613 699 488 564 613 b 243 590 335 613 285 606 l 250 894 l 660 894 z "},"6":{"ha":806,"x_min":0,"x_max":0,"o":"m 556 983 l 440 983 l 172 551 b 83 285 124 472 83 386 b 403 -25 83 101 218 -25 b 722 285 588 -25 722 101 b 422 588 722 464 593 588 b 282 551 372 588 311 574 l 279 554 z m 183 285 b 403 507 183 411 268 507 b 622 285 538 507 622 411 b 403 60 622 157 532 60 b 183 285 274 60 183 157 z "},"7":{"ha":806,"x_min":0,"x_max":0,"o":"m 692 983 l 108 983 l 108 894 l 590 894 l 183 0 l 296 0 l 692 892 z "},"8":{"ha":806,"x_min":0,"x_max":0,"o":"m 532 521 l 532 524 b 681 746 619 553 681 644 b 403 1008 681 906 553 1008 b 125 746 253 1008 125 906 b 274 524 125 644 186 553 l 274 521 b 88 258 167 489 88 390 b 403 -25 88 86 235 -25 b 718 258 571 -25 718 86 b 532 521 718 390 639 490 z m 222 740 b 403 924 222 846 300 924 b 583 740 506 924 583 846 b 403 564 583 638 503 564 b 222 740 303 564 222 638 z m 188 269 b 403 475 188 388 274 475 b 618 269 532 475 618 388 b 403 60 618 150 532 60 b 188 269 274 60 188 150 z "},"9":{"ha":806,"x_min":0,"x_max":0,"o":"m 253 0 l 368 0 l 636 432 b 725 699 685 511 725 597 b 406 1008 725 882 590 1008 b 86 699 221 1008 86 882 b 386 396 86 519 215 396 b 526 432 436 396 497 410 l 529 429 z m 625 699 b 406 476 625 572 540 476 b 186 699 271 476 186 572 b 406 924 186 826 276 924 b 625 699 535 924 625 826 z "},"!":{"ha":456,"x_min":0,"x_max":0,"o":"m 278 983 l 178 983 l 178 267 l 278 267 z m 303 67 b 228 142 303 106 272 142 b 153 67 183 142 153 106 b 228 -8 153 28 183 -8 b 303 67 272 -8 303 28 z "},"\"":{"ha":563,"x_min":0,"x_max":0,"o":"m 139 657 l 222 657 l 222 983 l 139 983 z m 340 657 l 424 657 l 424 983 l 340 983 z "},"#":{"ha":772,"x_min":0,"x_max":0,"o":"m 149 0 l 233 0 l 275 297 l 460 297 l 418 0 l 503 0 l 544 297 l 688 297 l 688 381 l 556 381 l 586 606 l 724 606 l 724 689 l 599 689 l 639 983 l 554 983 l 514 689 l 329 689 l 369 983 l 285 983 l 244 689 l 82 689 l 82 606 l 232 606 l 201 381 l 49 381 l 49 297 l 190 297 z m 317 606 l 501 606 l 471 381 l 286 381 z "},"$":{"ha":806,"x_min":0,"x_max":0,"o":"m 365 564 b 193 744 263 592 193 644 b 365 922 193 849 269 919 z m 432 446 b 614 253 538 413 614 347 b 432 64 614 115 514 67 z m 365 64 b 151 186 307 65 201 103 l 72 131 b 365 -17 139 46 240 -14 l 365 -117 l 432 -117 l 432 -17 b 714 246 592 -14 714 92 b 432 540 714 426 572 492 l 432 922 b 613 829 499 921 569 890 l 689 888 b 432 1000 626 961 521 997 l 432 1100 l 365 1100 l 365 1000 b 97 736 221 993 97 897 b 365 463 97 567 239 501 z "},"%":{"ha":1157,"x_min":0,"x_max":0,"o":"m 542 757 b 297 1000 542 893 435 1000 b 53 757 160 1000 53 893 b 297 514 53 621 160 514 b 542 757 435 514 542 621 z m 458 757 b 297 597 458 665 385 597 b 136 757 210 597 136 665 b 297 917 136 849 210 917 b 458 757 385 917 458 849 z m 1104 226 b 860 469 1104 363 997 469 b 615 226 722 469 615 363 b 860 -17 615 90 722 -17 b 1104 226 997 -17 1104 90 z m 1021 226 b 860 67 1021 135 947 67 b 699 226 772 67 699 135 b 860 386 699 318 772 386 b 1021 226 947 386 1021 318 z m 926 989 l 856 1026 l 229 -6 l 301 -43 z "},"&":{"ha":978,"x_min":0,"x_max":0,"o":"m 915 532 l 803 532 l 667 293 l 438 529 b 658 788 547 583 658 658 b 421 1008 658 928 551 1008 b 176 776 286 1008 176 924 b 296 547 176 686 236 608 b 68 256 167 490 68 404 b 375 -17 68 79 207 -17 b 678 146 508 -17 597 35 l 817 0 l 956 0 l 735 228 z m 561 788 b 381 589 561 686 468 629 b 274 775 343 619 274 704 b 422 926 274 867 336 926 b 561 788 501 926 561 868 z m 611 211 b 376 67 549 115 483 67 b 171 254 264 67 171 143 b 351 483 171 360 233 431 z "},"’":{"ha":308,"x_min":0,"x_max":0,"o":"m 250 983 l 151 983 l 58 657 l 138 657 z "},"(":{"ha":417,"x_min":0,"x_max":0,"o":"m 136 400 b 319 -175 136 185 214 -26 l 247 -221 b 44 400 131 -67 44 161 b 247 1021 44 639 131 867 l 319 975 b 136 400 214 826 136 615 z "},")":{"ha":417,"x_min":0,"x_max":0,"o":"m 281 400 b 97 -175 281 185 203 -26 l 169 -221 b 372 400 286 -67 372 161 b 169 1021 372 639 286 867 l 97 975 b 281 400 203 826 281 615 z "},"*":{"ha":617,"x_min":0,"x_max":0,"o":"m 350 983 l 267 983 l 267 785 l 72 847 l 43 769 l 239 707 l 114 539 l 181 489 l 308 661 l 436 489 l 503 539 l 378 707 l 574 769 l 544 847 l 350 785 z "},"+":{"ha":925,"x_min":0,"x_max":0,"o":"m 504 775 l 421 775 l 421 463 l 108 463 l 108 379 l 421 379 l 421 67 l 504 67 l 504 379 l 817 379 l 817 463 l 504 463 z "},",":{"ha":361,"x_min":0,"x_max":0,"o":"m 254 132 l 156 132 l 63 -194 l 142 -194 z "},"-":{"ha":444,"x_min":0,"x_max":0,"o":"m 378 376 l 67 376 l 67 297 l 378 297 z "},".":{"ha":361,"x_min":0,"x_max":0,"o":"m 256 67 b 181 142 256 106 225 142 b 106 67 136 142 106 106 b 181 -8 106 28 136 -8 b 256 67 225 -8 256 28 z "},"/":{"ha":514,"x_min":0,"x_max":0,"o":"m 507 981 l 428 1008 l 7 1 l 88 -25 z "},":":{"ha":417,"x_min":0,"x_max":0,"o":"m 283 583 b 208 658 283 622 253 658 b 133 583 164 658 133 622 b 208 508 133 544 164 508 b 283 583 253 508 283 544 z m 283 67 b 208 142 283 106 253 142 b 133 67 164 142 133 106 b 208 -8 133 28 164 -8 b 283 67 253 -8 283 28 z "},";":{"ha":417,"x_min":0,"x_max":0,"o":"m 283 583 b 208 658 283 622 253 658 b 133 583 164 658 133 622 b 208 508 133 544 164 508 b 283 583 253 508 283 544 z m 276 132 l 174 132 l 81 -194 l 164 -194 z "},"<":{"ha":925,"x_min":0,"x_max":0,"o":"m 817 783 l 108 453 l 108 389 l 817 58 l 817 142 l 221 421 l 817 700 z "},"=":{"ha":925,"x_min":0,"x_max":0,"o":"m 108 567 l 108 483 l 817 483 l 817 567 z m 108 358 l 108 275 l 817 275 l 817 358 z "},">":{"ha":925,"x_min":0,"x_max":0,"o":"m 108 700 l 704 421 l 108 142 l 108 58 l 817 389 l 817 453 l 108 783 z "},"?":{"ha":669,"x_min":0,"x_max":0,"o":"m 381 331 b 486 526 381 432 408 463 b 614 756 557 585 614 636 b 344 1000 614 913 493 1000 b 67 768 201 1000 94 911 l 161 751 b 340 914 175 846 242 914 b 514 750 436 914 514 854 b 433 596 514 678 479 633 l 394 561 b 283 350 338 511 283 456 l 283 267 l 381 267 z m 417 67 b 342 142 417 106 386 142 b 267 67 297 142 267 106 b 342 -8 267 28 297 -8 b 417 67 386 -8 417 28 z "},"@":{"ha":1111,"x_min":0,"x_max":0,"o":"m 572 679 b 688 536 663 679 688 607 b 513 303 688 444 640 303 b 401 446 422 303 401 393 b 572 679 401 554 463 679 z m 964 204 b 589 58 869 113 753 58 b 153 486 331 58 153 224 b 578 922 153 733 324 922 b 978 553 810 922 978 793 b 824 303 978 413 915 303 b 756 372 764 303 756 340 b 771 483 756 400 765 458 l 826 742 l 740 742 l 726 679 l 721 679 b 576 763 701 725 647 763 b 300 451 406 763 300 608 b 501 222 300 318 376 222 b 675 324 593 222 657 285 l 681 324 b 801 222 681 271 719 222 b 1071 563 944 222 1071 339 b 579 1008 1071 861 832 1008 b 49 490 286 1008 49 786 b 579 -25 49 189 261 -25 b 1015 140 756 -25 907 29 z "},"A":{"ha":972,"x_min":0,"x_max":0,"o":"m 231 258 l 739 258 l 847 0 l 958 0 l 536 983 l 439 983 l 14 0 l 124 0 z m 485 872 l 701 350 l 268 350 z "},"B":{"ha":883,"x_min":0,"x_max":0,"o":"m 131 0 l 422 0 b 789 272 649 0 789 108 b 567 518 789 415 694 504 l 567 521 b 740 732 671 544 740 629 b 424 983 740 929 574 983 l 131 983 z m 231 897 l 404 897 b 640 725 533 897 640 850 b 432 553 640 594 528 553 l 231 553 z m 231 471 l 435 471 b 688 278 594 471 688 407 b 417 86 688 140 561 86 l 231 86 z "},"C":{"ha":1000,"x_min":0,"x_max":0,"o":"m 881 208 b 592 63 813 107 704 63 b 183 492 339 63 183 263 b 592 921 183 721 338 921 b 857 792 717 921 815 856 l 940 853 b 590 1008 872 949 735 1008 b 78 492 297 1008 78 790 b 590 -25 78 193 293 -25 b 958 158 767 -25 893 60 z "},"D":{"ha":1051,"x_min":0,"x_max":0,"o":"m 131 0 l 457 0 b 974 492 703 0 974 164 b 457 983 974 819 703 983 l 131 983 z m 231 894 l 429 894 b 868 492 725 894 868 694 b 429 89 868 289 725 89 l 231 89 z "},"E":{"ha":822,"x_min":0,"x_max":0,"o":"m 231 468 l 707 468 l 707 556 l 231 556 l 231 894 l 740 894 l 740 983 l 131 983 l 131 0 l 757 0 l 757 89 l 231 89 z "},"F":{"ha":781,"x_min":0,"x_max":0,"o":"m 231 465 l 689 465 l 689 553 l 231 553 l 231 894 l 724 894 l 724 983 l 131 983 l 131 0 l 231 0 z "},"G":{"ha":1082,"x_min":0,"x_max":0,"o":"m 946 876 b 590 1008 863 958 746 1008 b 78 492 297 1008 78 790 b 590 -25 78 193 293 -25 b 957 71 724 -25 850 7 l 957 514 l 628 514 l 628 426 l 857 426 l 857 128 b 592 64 800 90 703 64 b 183 492 339 64 183 263 b 592 921 183 721 339 921 b 876 807 714 921 808 879 z "},"H":{"ha":997,"x_min":0,"x_max":0,"o":"m 131 0 l 231 0 l 231 465 l 767 465 l 767 0 l 867 0 l 867 983 l 767 983 l 767 557 l 231 557 l 231 983 l 131 983 z "},"I":{"ha":361,"x_min":0,"x_max":0,"o":"m 231 983 l 131 983 l 131 0 l 231 0 z "},"J":{"ha":683,"x_min":0,"x_max":0,"o":"m 35 175 b 299 -25 58 58 157 -25 b 561 283 514 -25 561 156 l 561 983 l 461 983 l 461 290 b 288 63 461 172 425 63 b 128 200 200 63 143 124 z "},"K":{"ha":872,"x_min":0,"x_max":0,"o":"m 231 983 l 131 983 l 131 0 l 231 0 l 231 524 l 232 524 l 724 0 l 871 0 l 347 538 l 843 983 l 700 983 l 232 542 l 231 542 z "},"L":{"ha":708,"x_min":0,"x_max":0,"o":"m 231 983 l 131 983 l 131 0 l 689 0 l 689 89 l 231 89 z "},"M":{"ha":1231,"x_min":0,"x_max":0,"o":"m 283 983 l 131 983 l 131 0 l 231 0 l 231 854 l 233 854 l 589 0 l 642 0 l 997 854 l 1000 854 l 1000 0 l 1100 0 l 1100 983 l 947 983 l 618 169 l 617 169 z "},"N":{"ha":1061,"x_min":0,"x_max":0,"o":"m 256 983 l 131 983 l 131 0 l 231 0 l 231 846 l 233 846 l 806 0 l 931 0 l 931 983 l 831 983 l 831 146 l 828 146 z "},"O":{"ha":1181,"x_min":0,"x_max":0,"o":"m 1103 492 b 590 1008 1103 790 883 1008 b 78 492 297 1008 78 790 b 590 -25 78 193 297 -25 b 1103 492 883 -25 1103 193 z m 997 492 b 590 64 997 263 843 64 b 183 492 338 64 183 263 b 590 921 183 721 338 921 b 997 492 843 921 997 721 z "},"P":{"ha":806,"x_min":0,"x_max":0,"o":"m 131 0 l 231 0 l 231 457 l 406 457 b 740 721 606 457 740 544 b 408 983 740 897 608 983 l 131 983 z m 231 897 l 400 897 b 640 721 551 897 640 842 b 400 542 640 604 556 542 l 231 542 z "},"Q":{"ha":1171,"x_min":0,"x_max":0,"o":"m 183 504 b 575 921 183 725 331 921 b 968 504 817 921 968 725 b 575 88 968 283 817 88 b 183 504 331 88 183 283 z m 1138 89 l 840 89 l 840 92 b 1071 504 993 179 1071 332 b 575 1008 1071 796 858 1008 b 78 504 290 1008 78 796 b 575 0 78 213 290 0 l 1138 0 z "},"R":{"ha":832,"x_min":0,"x_max":0,"o":"m 231 460 l 397 460 l 669 0 l 792 0 l 504 468 b 756 721 647 483 756 575 b 419 983 756 913 614 983 l 131 983 l 131 0 l 231 0 z m 231 897 l 408 897 b 656 721 557 897 656 850 b 404 546 656 604 564 546 l 231 546 z "},"S":{"ha":783,"x_min":0,"x_max":0,"o":"m 686 889 b 408 1008 639 953 540 1008 b 94 738 264 1008 94 928 b 358 463 94 560 228 503 b 599 251 483 424 599 389 b 381 61 599 125 482 61 b 156 185 278 61 199 115 l 69 121 b 379 -25 140 24 260 -25 b 700 258 535 -25 700 61 b 408 546 700 456 547 500 b 194 739 299 582 194 614 b 404 924 194 865 307 924 b 607 825 497 924 565 885 z "},"T":{"ha":792,"x_min":0,"x_max":0,"o":"m 446 894 l 775 894 l 775 983 l 17 983 l 17 894 l 346 894 l 346 0 l 446 0 z "},"U":{"ha":986,"x_min":0,"x_max":0,"o":"m 493 -25 b 861 367 788 -25 861 203 l 861 983 l 761 983 l 761 378 b 493 64 761 219 693 64 b 225 378 293 64 225 219 l 225 983 l 125 983 l 125 367 b 493 -25 125 203 199 -25 z "},"V":{"ha":865,"x_min":0,"x_max":0,"o":"m 113 983 l 4 983 l 379 0 l 485 0 l 861 983 l 754 983 l 435 129 l 432 129 z "},"W":{"ha":1350,"x_min":0,"x_max":0,"o":"m 125 983 l 19 983 l 310 0 l 426 0 l 674 844 l 676 844 l 924 0 l 1040 0 l 1331 983 l 1225 983 l 985 138 l 982 138 l 736 983 l 617 983 l 371 138 l 368 138 z "},"X":{"ha":901,"x_min":0,"x_max":0,"o":"m 183 983 l 58 983 l 388 517 l 26 0 l 151 0 l 450 443 l 750 0 l 875 0 l 514 515 l 840 983 l 721 983 l 453 586 z "},"Y":{"ha":836,"x_min":0,"x_max":0,"o":"m 468 424 l 836 983 l 719 983 l 421 507 l 125 983 l 0 983 l 368 424 l 368 0 l 468 0 z "},"Z":{"ha":794,"x_min":0,"x_max":0,"o":"m 743 983 l 58 983 l 58 894 l 618 894 l 43 83 l 43 0 l 751 0 l 751 89 l 169 89 l 743 900 z "},"[":{"ha":417,"x_min":0,"x_max":0,"o":"m 306 1017 l 81 1017 l 81 -217 l 306 -217 l 306 -142 l 172 -142 l 172 942 l 306 942 z "},"\\":{"ha":514,"x_min":0,"x_max":0,"o":"m 426 -25 l 507 1 l 86 1008 l 7 981 z "},"]":{"ha":417,"x_min":0,"x_max":0,"o":"m 111 -217 l 336 -217 l 336 1017 l 111 1017 l 111 942 l 244 942 l 244 -142 l 111 -142 z "},"^":{"ha":925,"x_min":0,"x_max":0,"o":"m 111 382 l 197 382 l 463 883 l 728 382 l 814 382 l 496 983 l 429 983 z "},"_":{"ha":694,"x_min":0,"x_max":0,"o":"m 0 -174 l 694 -174 l 694 -104 l 0 -104 z "},"‘":{"ha":308,"x_min":0,"x_max":0,"o":"m 58 657 l 157 657 l 250 983 l 171 983 z "},"a":{"ha":742,"x_min":0,"x_max":0,"o":"m 535 399 b 76 181 297 399 76 381 b 301 -17 76 36 203 -17 b 538 106 406 -17 478 19 l 540 106 b 550 0 540 71 544 32 l 635 0 b 624 146 628 36 624 96 l 624 431 b 371 667 624 589 511 667 b 115 574 260 667 168 626 l 168 511 b 361 588 214 557 285 588 b 535 419 474 588 535 532 z m 535 325 l 535 276 b 326 61 535 161 460 61 b 174 185 253 61 174 92 b 507 325 174 308 353 325 z "},"b":{"ha":885,"x_min":0,"x_max":0,"o":"m 225 110 b 471 -17 281 28 378 -17 b 807 325 674 -17 807 133 b 471 667 807 517 674 667 b 225 538 378 667 281 622 l 222 538 l 222 1050 l 128 1050 l 128 0 l 222 0 l 222 110 z m 707 325 b 461 64 707 181 618 64 b 211 325 315 64 211 176 b 461 588 211 474 315 588 b 707 325 618 588 707 469 z "},"c":{"ha":694,"x_min":0,"x_max":0,"o":"m 667 554 b 425 667 611 629 513 667 b 78 325 215 667 78 521 b 425 -17 78 129 215 -17 b 672 96 538 -17 617 28 l 601 149 b 425 64 564 99 507 64 b 178 325 274 64 178 178 b 426 588 178 474 275 588 b 593 501 497 588 563 551 z "},"d":{"ha":885,"x_min":0,"x_max":0,"o":"m 660 110 l 663 110 l 663 0 l 757 0 l 757 1050 l 663 1050 l 663 538 l 660 538 b 414 667 604 622 507 667 b 78 325 211 667 78 517 b 414 -17 78 133 211 -17 b 660 110 507 -17 604 28 z m 178 325 b 424 588 178 469 267 588 b 674 325 569 588 674 474 b 424 64 674 176 569 64 b 178 325 267 64 178 181 z "},"e":{"ha":794,"x_min":0,"x_max":0,"o":"m 178 375 b 406 588 186 486 279 588 b 621 375 540 588 615 497 z m 717 344 b 406 667 717 522 610 667 b 78 325 221 667 78 521 b 414 -17 78 129 221 -17 b 693 121 521 -17 617 24 l 622 176 b 414 64 586 118 511 64 b 176 300 281 64 179 169 l 715 300 b 717 344 717 317 717 332 z "},"f":{"ha":410,"x_min":0,"x_max":0,"o":"m 400 650 l 247 650 l 247 817 b 369 983 247 911 268 983 b 435 974 394 983 415 979 l 451 1057 b 374 1067 428 1064 397 1067 b 153 828 225 1067 153 975 l 153 650 l 17 650 l 17 571 l 153 571 l 153 0 l 247 0 l 247 571 l 400 571 z "},"g":{"ha":878,"x_min":0,"x_max":0,"o":"m 92 -203 b 404 -333 168 -283 285 -333 b 757 6 692 -333 757 -136 l 757 650 l 663 650 l 663 538 l 660 538 b 414 667 608 621 508 667 b 78 331 211 667 78 515 b 414 0 78 140 211 0 b 660 128 508 0 610 47 l 663 128 l 663 6 b 408 -250 663 -135 594 -250 b 160 -131 310 -250 211 -197 z m 178 333 b 424 588 178 469 267 588 b 674 333 569 588 674 469 b 424 81 674 183 569 81 b 178 333 267 81 178 197 z "},"h":{"ha":810,"x_min":0,"x_max":0,"o":"m 222 543 l 222 1050 l 128 1050 l 128 0 l 222 0 l 222 333 b 419 588 222 507 319 588 b 596 360 556 588 596 496 l 596 0 l 690 0 l 690 399 b 443 667 690 560 608 667 b 225 543 351 667 260 618 z "},"i":{"ha":347,"x_min":0,"x_max":0,"o":"m 221 650 l 126 650 l 126 0 l 221 0 z m 240 900 b 174 967 240 939 207 967 b 107 900 140 967 107 939 b 174 833 107 861 140 833 b 240 900 207 833 240 861 z "},"j":{"ha":349,"x_min":0,"x_max":0,"o":"m -37 -324 b 38 -333 -14 -331 18 -333 b 222 -129 185 -333 222 -233 l 222 650 l 128 650 l 128 -114 b 36 -253 128 -196 115 -253 b -24 -244 18 -253 -6 -250 z m 242 900 b 175 967 242 939 208 967 b 108 900 142 967 108 939 b 175 833 108 861 142 833 b 242 900 208 833 242 861 z "},"k":{"ha":708,"x_min":0,"x_max":0,"o":"m 222 1050 l 128 1050 l 128 0 l 222 0 l 222 342 l 226 342 l 557 0 l 696 0 l 335 353 l 663 650 l 526 650 l 226 357 l 222 357 z "},"l":{"ha":350,"x_min":0,"x_max":0,"o":"m 222 1050 l 128 1050 l 128 0 l 222 0 z "},"m":{"ha":1226,"x_min":0,"x_max":0,"o":"m 218 539 l 215 539 b 210 650 215 567 213 615 l 119 650 b 125 507 124 606 125 542 l 125 0 l 219 0 l 219 333 b 408 588 219 507 318 588 b 565 379 535 588 565 506 l 565 0 l 660 0 l 660 346 b 844 588 660 467 708 588 b 1013 360 967 588 1013 496 l 1013 0 l 1107 0 l 1107 399 b 860 667 1107 560 1025 667 b 632 529 756 667 676 618 b 432 667 589 640 503 667 b 218 539 339 667 256 614 z "},"n":{"ha":807,"x_min":0,"x_max":0,"o":"m 119 650 b 125 507 124 606 125 542 l 125 0 l 219 0 l 219 333 b 417 588 219 507 317 588 b 593 360 553 588 593 496 l 593 0 l 688 0 l 688 399 b 440 667 688 560 606 667 b 218 539 349 667 254 614 l 215 539 b 210 650 215 567 213 615 z "},"o":{"ha":849,"x_min":0,"x_max":0,"o":"m 771 325 b 424 667 771 521 626 667 b 78 325 222 667 78 521 b 424 -17 78 129 222 -17 b 771 325 626 -17 771 129 z m 671 325 b 424 64 671 179 575 64 b 178 325 274 64 178 179 b 424 588 178 471 274 588 b 671 325 575 588 671 471 z "},"p":{"ha":882,"x_min":0,"x_max":0,"o":"m 219 110 l 224 110 b 468 -17 278 29 375 -17 b 804 325 671 -17 804 133 b 468 667 804 517 671 667 b 224 538 375 667 278 622 l 219 538 l 219 650 l 125 650 l 125 -333 l 219 -333 z m 704 325 b 458 64 704 181 615 64 b 208 325 313 64 208 176 b 458 588 208 474 313 588 b 704 325 615 588 704 469 z "},"q":{"ha":882,"x_min":0,"x_max":0,"o":"m 663 110 l 663 -333 l 757 -333 l 757 650 l 663 650 l 663 538 l 658 538 b 414 667 604 622 507 667 b 78 325 211 667 78 517 b 414 -17 78 133 211 -17 b 658 110 507 -17 604 29 z m 178 325 b 424 588 178 469 267 588 b 674 325 569 588 674 474 b 424 64 674 176 569 64 b 178 325 267 64 178 181 z "},"r":{"ha":500,"x_min":0,"x_max":0,"o":"m 125 507 l 125 0 l 219 0 l 219 333 b 410 579 219 507 310 579 b 476 571 435 579 465 575 l 489 660 b 426 667 469 665 450 667 b 218 539 335 667 254 614 l 215 539 b 210 650 215 567 213 615 l 119 650 b 125 507 124 606 125 542 z "},"s":{"ha":617,"x_min":0,"x_max":0,"o":"m 543 550 b 315 667 501 624 406 667 b 83 478 197 667 83 610 b 269 303 83 354 193 321 b 461 178 393 274 461 246 b 308 64 461 93 389 64 b 128 165 232 64 161 108 l 53 110 b 310 -17 113 22 211 -17 b 554 185 429 -17 554 36 b 329 375 554 286 482 343 b 174 486 222 397 174 425 b 311 588 174 558 243 588 b 471 496 383 588 443 550 z "},"t":{"ha":440,"x_min":0,"x_max":0,"o":"m 418 650 l 235 650 l 235 833 l 140 833 l 140 650 l 6 650 l 6 571 l 140 571 l 140 165 b 307 -8 140 22 238 -8 b 418 11 350 -8 385 -1 l 414 93 b 332 72 389 81 358 72 b 235 192 275 72 235 94 l 235 571 l 418 571 z "},"u":{"ha":807,"x_min":0,"x_max":0,"o":"m 688 0 b 682 143 683 44 682 108 l 682 650 l 588 650 l 588 317 b 390 63 588 143 490 63 b 214 290 254 63 214 154 l 214 650 l 119 650 l 119 251 b 367 -17 119 90 201 -17 b 589 111 458 -17 553 36 l 592 111 b 597 0 592 83 594 35 z "},"v":{"ha":678,"x_min":0,"x_max":0,"o":"m 656 650 l 554 650 l 342 100 l 339 100 l 128 650 l 22 650 l 288 0 l 392 0 z "},"w":{"ha":1036,"x_min":0,"x_max":0,"o":"m 36 650 l 242 0 l 344 0 l 515 526 l 518 526 l 692 0 l 794 0 l 1000 650 l 900 650 l 744 122 l 742 122 l 564 650 l 472 650 l 297 122 l 294 122 l 138 650 z "},"x":{"ha":672,"x_min":0,"x_max":0,"o":"m 22 0 l 136 0 l 335 271 l 528 0 l 650 0 l 392 340 l 628 650 l 514 650 l 336 403 l 158 650 l 38 650 l 278 336 z "},"y":{"ha":678,"x_min":0,"x_max":0,"o":"m 128 650 l 22 650 l 300 1 l 247 -135 b 122 -250 219 -208 186 -250 b 53 -239 97 -250 74 -246 l 43 -325 b 128 -333 71 -331 100 -333 b 332 -168 240 -333 293 -268 l 656 650 l 553 650 l 351 101 l 349 101 z "},"z":{"ha":614,"x_min":0,"x_max":0,"o":"m 557 650 l 63 650 l 63 571 l 431 571 l 43 67 l 43 0 l 571 0 l 571 82 l 168 82 l 557 583 z "},"{":{"ha":417,"x_min":0,"x_max":0,"o":"m 0 358 b 110 204 72 358 110 301 l 110 -43 b 260 -217 110 -174 181 -217 l 347 -217 l 347 -142 l 281 -142 b 201 -26 213 -142 201 -79 l 201 221 b 78 399 201 356 110 394 l 78 401 b 201 579 110 406 201 444 l 201 826 b 281 942 201 879 213 942 l 347 942 l 347 1017 l 260 1017 b 110 843 181 1017 110 974 l 110 596 b 0 442 110 499 72 442 z "},"|":{"ha":308,"x_min":0,"x_max":0,"o":"m 113 1042 l 113 -347 l 196 -347 l 196 1042 z "},"}":{"ha":417,"x_min":0,"x_max":0,"o":"m 417 358 b 307 204 344 358 307 301 l 307 -43 b 157 -217 307 -174 236 -217 l 69 -217 l 69 -142 l 136 -142 b 215 -26 204 -142 215 -79 l 215 221 b 339 399 215 356 307 394 l 339 401 b 215 579 307 406 215 444 l 215 826 b 136 942 215 879 204 942 l 69 942 l 69 1017 l 157 1017 b 307 843 236 1017 307 974 l 307 596 b 417 442 307 499 344 442 z "},"~":{"ha":925,"x_min":0,"x_max":0,"o":"m 743 511 b 608 410 718 469 672 410 b 465 467 564 410 519 432 b 313 515 408 504 364 515 b 124 386 222 515 165 444 l 182 331 b 315 432 207 376 251 432 b 458 376 364 432 401 413 b 613 326 524 335 560 326 b 801 456 703 326 764 397 z "},"¡":{"ha":456,"x_min":0,"x_max":0,"o":"m 278 -318 l 178 -318 l 178 399 l 278 399 z m 303 599 b 228 524 303 560 272 524 b 153 599 183 524 153 560 b 228 674 153 638 183 674 b 303 599 272 674 303 638 z "},"¢":{"ha":806,"x_min":0,"x_max":0,"o":"m 414 71 b 222 325 294 92 222 194 b 414 579 222 456 294 558 z m 481 582 b 629 497 547 578 601 542 l 704 554 b 481 665 644 625 564 661 l 481 750 l 414 750 l 414 663 b 122 325 232 643 122 504 b 414 -12 122 146 232 7 l 414 -100 l 481 -100 l 481 -15 b 704 96 564 -11 644 25 l 629 153 b 481 68 601 108 547 72 z "},"£":{"ha":806,"x_min":0,"x_max":0,"o":"m 579 549 l 346 549 l 346 669 b 536 924 346 764 371 924 b 690 854 600 924 654 896 l 756 925 b 540 1008 700 983 621 1008 b 246 678 317 1008 246 838 l 246 549 l 113 549 l 113 465 l 246 465 l 246 83 l 104 83 l 104 0 l 710 0 l 710 83 l 346 83 l 346 465 l 579 465 z "},"⁄":{"ha":139,"x_min":0,"x_max":0,"o":"m 413 989 l 342 1026 l -285 -6 l -212 -43 z "},"¥":{"ha":806,"x_min":0,"x_max":0,"o":"m 126 310 l 126 235 l 356 235 l 356 0 l 450 0 l 450 235 l 679 235 l 679 310 l 450 310 l 450 456 l 679 456 l 679 531 l 481 531 l 792 983 l 672 983 l 406 567 l 138 983 l 14 983 l 328 531 l 126 531 l 126 456 l 356 456 l 356 310 z "},"ƒ":{"ha":806,"x_min":0,"x_max":0,"o":"m 614 582 l 464 582 l 494 756 b 619 917 504 814 528 917 b 699 893 647 917 675 910 l 746 960 b 614 1000 710 986 661 1000 b 403 782 475 1000 424 896 l 365 582 l 200 582 l 200 507 l 350 507 l 263 38 b 143 -110 250 -33 229 -110 b 69 -92 115 -110 90 -103 l 32 -168 b 140 -193 65 -187 100 -193 b 356 18 290 -193 336 -82 l 449 507 l 614 507 z "},"§":{"ha":806,"x_min":0,"x_max":0,"o":"m 658 878 b 428 1008 631 950 551 1008 b 176 789 299 1008 176 939 b 283 622 176 693 242 647 b 139 439 200 596 139 531 b 271 253 139 336 199 288 l 447 168 b 551 35 506 140 551 101 b 390 -101 551 -74 456 -101 b 207 19 314 -101 238 -67 l 115 -25 b 390 -185 160 -133 267 -185 b 651 42 525 -185 651 -114 b 553 215 651 121 617 176 b 676 397 621 240 676 306 b 533 594 676 500 611 557 l 413 651 b 276 801 343 681 276 715 b 426 925 276 879 338 925 b 576 836 513 925 560 878 z m 444 533 b 579 383 518 503 579 467 b 478 260 579 311 524 271 l 386 301 b 236 444 290 342 236 371 b 360 569 236 529 308 564 z "},"¤":{"ha":1194,"x_min":0,"x_max":0,"o":"m 883 650 l 1008 775 b 947 835 989 794 968 815 b 821 708 906 793 864 750 b 599 783 763 756 686 783 b 374 707 510 783 433 754 b 246 835 332 749 288 792 b 185 775 226 815 206 794 b 314 647 228 732 271 689 b 244 429 269 589 244 515 b 318 206 244 339 271 263 l 185 72 b 244 11 206 53 225 32 b 379 146 289 57 335 101 b 599 72 442 97 515 72 b 817 143 683 72 758 99 b 949 11 861 100 904 56 b 1008 72 969 32 989 53 b 878 201 965 115 921 158 b 954 429 926 261 954 339 b 883 650 954 518 928 592 z m 599 689 b 851 429 753 689 851 572 b 599 167 851 285 753 167 b 346 429 444 167 346 285 b 599 689 346 572 444 689 z "},"'":{"ha":361,"x_min":0,"x_max":0,"o":"m 139 657 l 222 657 l 222 983 l 139 983 z "},"“":{"ha":538,"x_min":0,"x_max":0,"o":"m 58 657 l 157 657 l 250 983 l 171 983 z m 288 657 l 386 657 l 479 983 l 400 983 z "},"«":{"ha":669,"x_min":0,"x_max":0,"o":"m 332 578 l 267 624 l 72 333 l 267 43 l 332 89 l 172 333 z m 585 578 l 519 624 l 325 333 l 519 43 l 585 89 l 425 333 z "},"‹":{"ha":438,"x_min":0,"x_max":0,"o":"m 182 333 l 342 578 l 276 624 l 82 333 l 276 43 l 342 89 z "},"›":{"ha":438,"x_min":0,"x_max":0,"o":"m 256 333 l 96 89 l 161 43 l 356 333 l 161 624 l 96 578 z "},"ﬁ":{"ha":756,"x_min":0,"x_max":0,"o":"m 628 650 l 533 650 l 533 0 l 628 0 z m 649 900 b 582 967 649 939 615 967 b 515 900 549 967 515 939 b 582 833 515 861 549 833 b 649 900 615 833 649 861 z m 400 650 l 247 650 l 247 817 b 369 983 247 911 268 983 b 435 974 394 983 415 979 l 451 1057 b 374 1067 428 1064 397 1067 b 153 828 225 1067 153 975 l 153 650 l 17 650 l 17 571 l 153 571 l 153 0 l 247 0 l 247 571 l 400 571 z "},"ﬂ":{"ha":756,"x_min":0,"x_max":0,"o":"m 628 1050 l 533 1050 l 533 0 l 628 0 z m 400 650 l 247 650 l 247 817 b 369 983 247 911 268 983 b 435 974 394 983 415 979 l 451 1057 b 374 1067 428 1064 397 1067 b 153 828 225 1067 153 975 l 153 650 l 17 650 l 17 571 l 153 571 l 153 0 l 247 0 l 247 571 l 400 571 z "},"–":{"ha":556,"x_min":0,"x_max":0,"o":"m 514 376 l 42 376 l 42 297 l 514 297 z "},"†":{"ha":772,"x_min":0,"x_max":0,"o":"m 432 983 l 340 983 l 340 700 l 57 700 l 57 617 l 340 617 l 340 -175 l 432 -175 l 432 617 l 715 617 l 715 700 l 432 700 z "},"‡":{"ha":772,"x_min":0,"x_max":0,"o":"m 432 983 l 340 983 l 340 717 l 69 717 l 69 633 l 340 633 l 340 175 l 69 175 l 69 92 l 340 92 l 340 -175 l 432 -175 l 432 92 l 703 92 l 703 175 l 432 175 l 432 633 l 703 633 l 703 717 l 432 717 z "},"·":{"ha":361,"x_min":0,"x_max":0,"o":"m 256 436 b 181 511 256 475 225 511 b 106 436 136 511 106 475 b 181 361 106 397 136 361 b 256 436 225 361 256 397 z "},"¶":{"ha":833,"x_min":0,"x_max":0,"o":"m 713 983 l 383 983 b 67 697 189 983 67 878 b 357 439 67 553 188 439 l 357 -175 l 449 -175 l 449 908 l 621 908 l 621 -175 l 713 -175 z "},"•":{"ha":694,"x_min":0,"x_max":0,"o":"m 101 492 b 347 246 101 356 211 246 b 593 492 483 246 593 356 b 347 738 593 628 483 738 b 101 492 211 738 101 628 z "},"‚":{"ha":308,"x_min":0,"x_max":0,"o":"m 250 132 l 151 132 l 58 -194 l 138 -194 z "},"„":{"ha":538,"x_min":0,"x_max":0,"o":"m 479 132 l 381 132 l 288 -194 l 367 -194 z m 250 132 l 151 132 l 58 -194 l 138 -194 z "},"”":{"ha":538,"x_min":0,"x_max":0,"o":"m 479 983 l 381 983 l 288 657 l 367 657 z m 250 983 l 151 983 l 58 657 l 138 657 z "},"»":{"ha":669,"x_min":0,"x_max":0,"o":"m 338 89 l 403 43 l 597 333 l 403 624 l 338 578 l 497 333 z m 85 89 l 150 43 l 344 333 l 150 624 l 85 578 l 244 333 z "},"…":{"ha":1389,"x_min":0,"x_max":0,"o":"m 307 67 b 232 142 307 106 276 142 b 157 67 188 142 157 106 b 232 -8 157 28 188 -8 b 307 67 276 -8 307 28 z m 769 67 b 694 142 769 106 739 142 b 619 67 650 142 619 106 b 694 -8 619 28 650 -8 b 769 67 739 -8 769 28 z m 1232 67 b 1157 142 1232 106 1201 142 b 1082 67 1113 142 1082 106 b 1157 -8 1082 28 1113 -8 b 1232 67 1201 -8 1232 28 z "},"‰":{"ha":1389,"x_min":0,"x_max":0,"o":"m 460 786 b 247 1000 460 903 365 1000 b 35 786 129 1000 35 903 b 247 572 35 669 129 572 b 460 786 365 572 460 669 z m 385 786 b 247 647 385 710 324 647 b 110 786 171 647 110 710 b 247 925 110 863 171 925 b 385 786 324 925 385 863 z m 868 197 b 656 411 868 314 774 411 b 443 197 538 411 443 314 b 656 -17 443 81 538 -17 b 868 197 774 -17 868 81 z m 793 197 b 656 58 793 121 732 58 b 518 197 579 58 518 121 b 656 336 518 274 579 336 b 793 197 732 336 793 274 z m 1354 197 b 1142 411 1354 314 1260 411 b 929 197 1024 411 929 314 b 1142 -17 929 81 1024 -17 b 1354 197 1260 -17 1354 81 z m 1279 197 b 1142 58 1279 121 1218 58 b 1004 197 1065 58 1004 121 b 1142 336 1004 274 1065 336 b 1279 197 1218 336 1279 274 z m 799 989 l 728 1026 l 101 -6 l 174 -43 z "},"¿":{"ha":669,"x_min":0,"x_max":0,"o":"m 297 335 b 192 139 297 233 269 203 b 64 -90 121 81 64 29 b 333 -335 64 -247 185 -335 b 611 -103 476 -335 583 -246 l 517 -86 b 338 -249 503 -181 436 -249 b 164 -85 242 -249 164 -189 b 244 69 164 -12 199 32 l 283 104 b 394 315 340 154 394 210 l 394 399 l 297 399 z m 261 599 b 336 524 261 560 292 524 b 411 599 381 524 411 560 b 336 674 411 638 381 674 b 261 599 292 674 261 638 z "},"`":{"ha":333,"x_min":0,"x_max":0,"o":"m 169 783 l 251 783 l 113 983 l -14 983 z "},"´":{"ha":333,"x_min":0,"x_max":0,"o":"m 347 983 l 221 983 l 82 783 l 164 783 z "},"ˆ":{"ha":333,"x_min":0,"x_max":0,"o":"m 222 983 l 111 983 l -40 783 l 51 783 l 167 933 l 282 783 l 374 783 z "},"˜":{"ha":333,"x_min":0,"x_max":0,"o":"m 1 800 b 69 869 10 835 28 869 b 163 838 99 869 131 854 b 264 806 194 821 231 806 b 392 950 347 806 379 878 l 332 950 b 264 881 324 915 306 881 b 171 913 236 881 204 897 b 69 944 138 929 103 944 b -58 800 -14 944 -46 872 z "},"¯":{"ha":333,"x_min":0,"x_max":0,"o":"m 354 908 l -21 908 l -21 833 l 354 833 z "},"˘":{"ha":333,"x_min":0,"x_max":0,"o":"m 310 983 b 167 875 297 911 236 875 b 24 983 97 875 36 911 l -37 983 b 167 800 -31 868 53 800 b 371 983 281 800 364 868 z "},"˙":{"ha":333,"x_min":0,"x_max":0,"o":"m 233 900 b 167 967 233 939 200 967 b 100 900 133 967 100 939 b 167 833 100 861 133 833 b 233 900 200 833 233 861 z "},"¨":{"ha":333,"x_min":0,"x_max":0,"o":"m -37 899 b 33 828 -37 863 -8 828 b 104 899 75 828 104 863 b 33 969 104 935 75 969 b -37 899 -8 969 -37 935 z m 229 899 b 300 828 229 863 258 828 b 371 899 342 828 371 863 b 300 969 371 935 342 969 b 229 899 258 969 229 935 z "},"˚":{"ha":333,"x_min":0,"x_max":0,"o":"m 300 903 b 167 1035 300 978 239 1035 b 33 903 94 1035 33 978 b 167 771 33 828 94 771 b 300 903 239 771 300 828 z m 250 903 b 167 821 250 857 213 821 b 83 903 121 821 83 857 b 167 985 83 949 121 985 b 250 903 213 985 250 949 z "},"¸":{"ha":333,"x_min":0,"x_max":0,"o":"m 217 0 l 157 0 l 71 -136 l 96 -157 b 156 -146 114 -150 136 -146 b 231 -200 201 -146 231 -164 b 142 -261 231 -246 171 -261 b 42 -242 107 -261 72 -256 l 19 -292 b 150 -319 58 -310 113 -319 b 314 -199 225 -319 314 -292 b 200 -99 314 -132 256 -99 b 151 -104 179 -99 165 -100 z "},"˝":{"ha":333,"x_min":0,"x_max":0,"o":"m 182 983 l 56 983 l -85 783 l -3 783 z m 418 983 l 292 983 l 153 783 l 235 783 z "},"˛":{"ha":333,"x_min":0,"x_max":0,"o":"m 265 -204 b 194 -235 247 -224 219 -235 b 125 -168 157 -235 125 -207 b 232 0 125 -114 164 -68 l 165 0 b 42 -192 108 -46 42 -114 b 167 -310 42 -262 101 -310 b 292 -260 213 -310 260 -290 z "},"ˇ":{"ha":333,"x_min":0,"x_max":0,"o":"m 374 983 l 282 983 l 167 833 l 51 983 l -40 983 l 111 783 l 222 783 z "},"—":{"ha":833,"x_min":0,"x_max":0,"o":"m 792 376 l 42 376 l 42 297 l 792 297 z "},"Æ":{"ha":1375,"x_min":0,"x_max":0,"o":"m 821 468 l 1250 468 l 1250 556 l 821 556 l 821 894 l 1283 894 l 1283 983 l 656 983 l 15 0 l 129 0 l 307 275 l 721 275 l 721 0 l 1300 0 l 1300 89 l 821 89 z m 358 363 l 701 894 l 721 894 l 721 363 z "},"ª":{"ha":500,"x_min":0,"x_max":0,"o":"m 339 842 b 56 710 201 842 56 828 b 203 589 56 619 138 589 b 339 656 263 589 310 613 l 342 656 b 349 599 342 638 344 617 l 421 599 b 415 676 417 618 415 650 l 415 847 b 244 1000 415 933 361 1000 b 78 942 179 1000 118 978 l 122 893 b 238 938 149 919 193 938 b 339 853 297 938 339 910 z m 339 786 l 339 765 b 219 650 339 699 294 650 b 138 711 179 650 138 665 b 318 786 138 778 239 786 z "},"Ł":{"ha":708,"x_min":0,"x_max":0,"o":"m 231 983 l 131 983 l 131 433 l 17 336 l 17 239 l 131 336 l 131 0 l 689 0 l 689 89 l 231 89 l 231 406 l 531 664 l 531 761 l 231 503 z "},"Ø":{"ha":1181,"x_min":0,"x_max":0,"o":"m 1075 961 l 1024 1008 l 918 896 b 590 1008 829 968 717 1008 b 78 492 297 1008 78 790 b 211 136 78 350 126 226 l 106 22 l 157 -25 l 263 88 b 590 -25 349 17 463 -25 b 1103 492 883 -25 1103 193 b 969 847 1103 633 1054 757 z m 904 775 b 997 492 965 700 997 597 b 590 64 997 263 846 64 b 328 157 482 64 396 97 z m 279 208 b 183 492 217 282 183 385 b 590 921 183 721 335 921 b 856 826 699 921 790 886 z "},"Œ":{"ha":1378,"x_min":0,"x_max":0,"o":"m 615 983 b 99 492 369 983 99 819 b 615 0 99 164 369 0 l 1313 0 l 1313 89 l 833 89 l 833 468 l 1263 468 l 1263 556 l 833 556 l 833 894 l 1296 894 l 1296 983 z m 643 894 l 733 894 l 733 89 l 643 89 b 204 492 347 89 204 289 b 643 894 204 694 347 894 z "},"º":{"ha":500,"x_min":0,"x_max":0,"o":"m 461 794 b 250 1000 461 915 372 1000 b 39 794 128 1000 39 915 b 250 589 39 675 128 589 b 461 794 372 589 461 675 z m 381 794 b 250 653 381 721 336 653 b 119 794 164 653 119 721 b 250 936 119 869 164 936 b 381 794 336 936 381 869 z "},"æ":{"ha":1208,"x_min":0,"x_max":0,"o":"m 619 375 b 835 588 624 486 721 588 b 1035 375 960 588 1035 499 l 619 375 z m 528 300 l 528 253 b 329 60 528 138 463 60 b 175 175 247 60 175 86 b 500 300 175 289 332 300 z m 1131 344 b 835 667 1131 522 1029 667 b 589 531 732 667 640 613 b 375 667 557 617 478 667 b 107 572 264 667 163 625 l 161 511 b 361 588 211 557 285 588 b 528 396 474 588 528 508 l 528 375 b 78 174 304 375 78 358 b 313 -17 78 35 200 -17 b 583 135 426 -17 533 17 b 842 -17 626 42 719 -17 b 1108 121 944 -17 1035 24 l 1040 175 b 842 63 1006 117 935 63 b 615 300 715 63 618 169 l 1129 300 b 1131 344 1131 313 1131 328 z "},"ı":{"ha":347,"x_min":0,"x_max":0,"o":"m 221 650 l 126 650 l 126 0 l 221 0 z "},"ł":{"ha":350,"x_min":0,"x_max":0,"o":"m 219 1050 l 128 1050 l 128 560 l 15 446 l 15 344 l 128 460 l 128 0 l 219 0 l 219 536 l 332 651 l 332 753 l 219 636 z "},"ø":{"ha":849,"x_min":0,"x_max":0,"o":"m 625 488 b 675 325 658 447 675 385 b 421 60 675 176 575 60 b 261 114 357 60 303 81 z m 221 161 b 174 325 190 201 174 263 b 424 590 174 472 269 590 b 585 535 488 590 549 571 z m 779 646 l 735 689 l 643 594 b 422 667 583 640 508 667 b 78 325 221 667 78 521 b 158 99 78 236 107 158 l 67 4 l 111 -39 l 204 56 b 422 -17 260 11 335 -17 b 771 325 625 -17 771 129 b 688 551 771 415 738 494 z "},"œ":{"ha":1381,"x_min":0,"x_max":0,"o":"m 990 667 b 714 508 869 667 771 606 b 422 667 656 606 554 667 b 78 325 221 667 78 521 b 422 -17 78 129 221 -17 b 715 142 554 -17 657 44 b 999 -17 772 44 872 -17 b 1279 121 1107 -17 1203 24 l 1208 176 b 1000 64 1172 118 1097 64 b 760 300 867 64 763 169 l 1301 300 b 1303 344 1303 317 1303 332 b 990 667 1303 522 1196 667 z m 671 325 b 422 64 671 179 574 64 b 175 325 272 64 175 179 b 422 588 175 471 272 588 b 671 325 574 588 671 471 z m 764 375 b 992 588 772 486 865 588 b 1207 375 1126 588 1201 497 z "},"ß":{"ha":829,"x_min":0,"x_max":0,"o":"m 217 753 b 410 983 217 850 247 983 b 585 813 504 983 585 924 b 389 638 585 692 501 638 l 378 638 l 378 554 l 390 554 b 658 311 551 554 658 472 b 414 64 658 157 561 64 b 347 69 394 64 365 67 l 347 -10 b 424 -17 369 -14 401 -17 b 757 310 626 -17 757 113 b 519 597 757 468 660 581 l 519 600 b 681 821 628 639 681 711 b 414 1067 681 976 554 1067 b 122 756 185 1067 122 900 l 122 0 l 217 0 z "},"×":{"ha":925,"x_min":0,"x_max":0,"o":"m 242 701 l 183 643 l 404 421 l 183 200 l 242 140 l 463 361 l 682 140 l 742 200 l 521 421 l 742 643 l 682 701 l 463 481 z "},"≥":{"ha":925,"x_min":0,"x_max":0,"o":"m 811 411 l 811 501 l 114 764 l 114 674 l 697 456 l 114 240 l 114 150 z m 811 8 l 811 90 l 114 90 l 114 8 z "},"ű":{"ha":807,"x_min":0,"x_max":0,"o":"m 688 0 b 682 143 683 44 682 108 l 682 650 l 588 650 l 588 317 b 390 63 588 143 490 63 b 214 290 254 63 214 154 l 214 650 l 119 650 l 119 251 b 367 -17 119 90 201 -17 b 589 111 458 -17 553 36 l 592 111 b 597 0 592 83 594 35 z m 503 983 l 376 983 l 236 783 l 318 783 z m 739 983 l 613 983 l 474 783 l 556 783 z "},"ò":{"ha":849,"x_min":0,"x_max":0,"o":"m 771 325 b 424 667 771 521 626 667 b 78 325 222 667 78 521 b 424 -17 78 129 222 -17 b 771 325 626 -17 771 129 z m 671 325 b 424 64 671 179 575 64 b 178 325 274 64 178 179 b 424 588 178 471 274 588 b 671 325 575 588 671 471 z m 396 783 l 478 783 l 339 983 l 213 983 z "},"√":{"ha":685,"x_min":0,"x_max":0,"o":"m 697 1092 l 610 1092 l 347 -181 l 128 281 l -11 214 l 22 144 l 86 175 l 314 -297 l 406 -297 z "},"≠":{"ha":925,"x_min":0,"x_max":0,"o":"m 811 167 l 811 250 l 457 250 l 553 431 l 811 431 l 811 514 l 597 514 l 685 679 l 613 718 l 506 514 l 114 514 l 114 431 l 460 431 l 365 250 l 114 250 l 114 167 l 321 167 l 235 4 l 307 -33 l 413 167 z "},"ō":{"ha":849,"x_min":0,"x_max":0,"o":"m 771 325 b 424 667 771 521 626 667 b 78 325 222 667 78 521 b 424 -17 78 129 222 -17 b 771 325 626 -17 771 129 z m 671 325 b 424 64 671 179 575 64 b 178 325 274 64 178 179 b 424 588 178 471 274 588 b 671 325 575 588 671 471 z m 614 908 l 239 908 l 239 833 l 614 833 z "},"ő":{"ha":849,"x_min":0,"x_max":0,"o":"m 771 325 b 424 667 771 521 626 667 b 78 325 222 667 78 521 b 424 -17 78 129 222 -17 b 771 325 626 -17 771 129 z m 671 325 b 424 64 671 179 575 64 b 178 325 274 64 178 179 b 424 588 178 471 274 588 b 671 325 575 588 671 471 z m 539 983 l 413 983 l 272 783 l 354 783 z m 775 983 l 649 983 l 510 783 l 592 783 z "},"":{"ha":711,"x_min":0,"x_max":0,"o":"m 308 163 l 308 256 l 386 256 l 386 163 z m 313 325 l 310 349 b 328 461 310 400 315 438 b 392 543 340 485 361 513 b 461 658 451 600 461 624 b 356 776 461 725 413 776 b 242 644 299 776 253 739 l 172 656 b 360 846 185 788 260 846 b 532 664 458 846 532 774 b 444 497 532 604 515 563 b 385 425 410 467 390 443 b 376 325 379 407 376 374 z m 642 69 l 642 926 l 69 926 l 69 69 z m 711 997 l 711 0 l 0 0 l 0 997 z "},"õ":{"ha":849,"x_min":0,"x_max":0,"o":"m 771 325 b 424 667 771 521 626 667 b 78 325 222 667 78 521 b 424 -17 78 129 222 -17 b 771 325 626 -17 771 129 z m 671 325 b 424 64 671 179 575 64 b 178 325 274 64 178 179 b 424 588 178 471 274 588 b 671 325 575 588 671 471 z m 258 800 b 326 869 267 835 285 869 b 419 838 356 869 388 854 b 521 806 451 821 488 806 b 649 950 604 806 636 878 l 589 950 b 521 881 581 915 563 881 b 428 913 493 881 461 897 b 326 944 394 929 360 944 b 199 800 243 944 211 872 z "},"ñ":{"ha":807,"x_min":0,"x_max":0,"o":"m 119 650 b 125 507 124 606 125 542 l 125 0 l 219 0 l 219 333 b 417 588 219 507 317 588 b 593 360 553 588 593 496 l 593 0 l 688 0 l 688 399 b 440 667 688 560 606 667 b 218 539 349 667 254 614 l 215 539 b 210 650 215 567 213 615 z m 242 800 b 310 869 250 835 268 869 b 403 838 339 869 371 854 b 504 806 435 821 471 806 b 632 950 588 806 619 878 l 572 950 b 504 881 564 915 546 881 b 411 913 476 881 444 897 b 310 944 378 929 343 944 b 182 800 226 944 194 872 z "},"ö":{"ha":849,"x_min":0,"x_max":0,"o":"m 771 325 b 424 667 771 521 626 667 b 78 325 222 667 78 521 b 424 -17 78 129 222 -17 b 771 325 626 -17 771 129 z m 671 325 b 424 64 671 179 575 64 b 178 325 274 64 178 179 b 424 588 178 471 274 588 b 671 325 575 588 671 471 z m 219 899 b 290 828 219 863 249 828 b 361 899 332 828 361 863 b 290 969 361 935 332 969 b 219 899 249 969 219 935 z m 486 899 b 557 828 486 863 515 828 b 628 899 599 828 628 863 b 557 969 628 935 599 969 b 486 899 515 969 486 935 z "},"ĵ":{"ha":349,"x_min":0,"x_max":0,"o":"m -37 -324 b 38 -333 -14 -331 18 -333 b 222 -129 185 -333 222 -233 l 222 650 l 128 650 l 128 -114 b 36 -253 128 -196 115 -253 b -24 -244 18 -253 -6 -250 z m 231 983 l 119 983 l -32 783 l 60 783 l 175 933 l 290 783 l 382 783 z "},"ň":{"ha":807,"x_min":0,"x_max":0,"o":"m 119 650 b 125 507 124 606 125 542 l 125 0 l 219 0 l 219 333 b 417 588 219 507 317 588 b 593 360 553 588 593 496 l 593 0 l 688 0 l 688 399 b 440 667 688 560 606 667 b 218 539 349 667 254 614 l 215 539 b 210 650 215 567 213 615 z m 614 983 l 522 983 l 407 833 l 292 983 l 200 983 l 351 783 l 463 783 z "},"ï":{"ha":347,"x_min":0,"x_max":0,"o":"m 221 650 l 126 650 l 126 0 l 221 0 z m -29 899 b 42 828 -29 863 0 828 b 113 899 83 828 113 863 b 42 969 113 935 83 969 b -29 899 0 969 -29 935 z m 238 899 b 308 828 238 863 267 828 b 379 899 350 828 379 863 b 308 969 379 935 350 969 b 238 899 267 969 238 935 z "},"ô":{"ha":849,"x_min":0,"x_max":0,"o":"m 771 325 b 424 667 771 521 626 667 b 78 325 222 667 78 521 b 424 -17 78 129 222 -17 b 771 325 626 -17 771 129 z m 671 325 b 424 64 671 179 575 64 b 178 325 274 64 178 179 b 424 588 178 471 274 588 b 671 325 575 588 671 471 z m 479 983 l 368 983 l 217 783 l 308 783 l 424 933 l 539 783 l 631 783 z "},"½":{"ha":1167,"x_min":0,"x_max":0,"o":"m 1092 75 l 813 75 l 990 253 b 1089 433 1038 300 1089 351 b 907 596 1089 542 1004 596 b 719 435 814 596 738 529 l 803 422 b 907 519 815 482 856 519 b 1000 433 960 519 1000 486 b 940 314 1000 382 969 344 l 708 79 l 708 0 l 1092 0 z m 926 989 l 856 1026 l 229 -6 l 301 -43 z m 322 983 l 251 983 l 96 856 l 149 799 l 238 878 l 238 397 l 322 397 z "},"ũ":{"ha":807,"x_min":0,"x_max":0,"o":"m 688 0 b 682 143 683 44 682 108 l 682 650 l 588 650 l 588 317 b 390 63 588 143 490 63 b 214 290 254 63 214 154 l 214 650 l 119 650 l 119 251 b 367 -17 119 90 201 -17 b 589 111 458 -17 553 36 l 592 111 b 597 0 592 83 594 35 z m 239 800 b 307 869 247 835 265 869 b 400 838 336 869 368 854 b 501 806 432 821 468 806 b 629 950 585 806 617 878 l 569 950 b 501 881 561 915 543 881 b 408 913 474 881 442 897 b 307 944 375 929 340 944 b 179 800 224 944 192 872 z "},"∏":{"ha":988,"x_min":0,"x_max":0,"o":"m 890 -297 l 890 1092 l 99 1092 l 99 -297 l 190 -297 l 190 1006 l 799 1006 l 799 -297 z "},"²":{"ha":514,"x_min":0,"x_max":0,"o":"m 443 478 l 164 478 l 342 656 b 440 836 389 703 440 754 b 258 999 440 944 356 999 b 71 838 165 999 89 932 l 154 825 b 258 922 167 885 207 922 b 351 836 311 922 351 889 b 292 717 351 785 321 747 l 60 482 l 60 403 l 443 403 z "},"ĺ":{"ha":350,"x_min":0,"x_max":0,"o":"m 222 1050 l 128 1050 l 128 0 l 222 0 z m 396 1300 l 269 1300 l 131 1100 l 213 1100 z "},"ŉ":{"ha":807,"x_min":0,"x_max":0,"o":"m 119 650 b 125 507 124 606 125 542 l 125 0 l 219 0 l 219 333 b 417 588 219 507 317 588 b 593 360 553 588 593 496 l 593 0 l 688 0 l 688 399 b 440 667 688 560 606 667 b 218 539 349 667 254 614 l 215 539 b 210 650 215 567 213 615 z m 147 1050 l 49 1050 l -37 793 l 42 793 z "},"μ":{"ha":772,"x_min":0,"x_max":0,"o":"m 100 -317 l 192 -317 l 192 24 b 344 -17 229 -3 281 -17 b 563 106 431 -17 522 40 l 565 106 l 565 0 l 664 0 b 657 143 661 47 657 96 l 657 650 l 565 650 l 565 317 b 368 67 565 157 479 67 b 192 290 235 67 192 131 l 192 650 l 100 650 z "},"∑":{"ha":839,"x_min":0,"x_max":0,"o":"m 803 -297 l 803 -212 l 146 -212 l 601 401 l 172 1006 l 786 1006 l 786 1092 l 54 1092 l 54 1014 l 492 401 l 35 -221 l 35 -297 z "},"ŕ":{"ha":500,"x_min":0,"x_max":0,"o":"m 125 507 l 125 0 l 219 0 l 219 333 b 410 579 219 507 310 579 b 476 571 435 579 465 575 l 489 660 b 426 667 469 665 450 667 b 218 539 335 667 254 614 l 215 539 b 210 650 215 567 213 615 l 119 650 b 125 507 124 606 125 542 z m 426 983 l 300 983 l 161 783 l 243 783 z "},"™":{"ha":1389,"x_min":0,"x_max":0,"o":"m 557 983 l 100 983 l 100 908 l 289 908 l 289 411 l 372 411 l 372 908 l 557 908 z m 1289 983 l 1164 983 l 985 544 l 806 983 l 676 983 l 676 411 l 760 411 l 760 892 l 763 892 l 956 411 l 1010 411 l 1203 892 l 1206 892 l 1206 411 l 1289 411 z "},"Ú":{"ha":986,"x_min":0,"x_max":0,"o":"m 493 -25 b 861 367 788 -25 861 203 l 861 983 l 761 983 l 761 378 b 493 64 761 219 693 64 b 225 378 293 64 225 219 l 225 983 l 125 983 l 125 367 b 493 -25 125 203 199 -25 z m 690 1261 l 564 1261 l 425 1061 l 507 1061 z "},"ļ":{"ha":350,"x_min":0,"x_max":0,"o":"m 222 1050 l 128 1050 l 128 0 l 222 0 z m 249 -62 l 150 -62 l 64 -319 l 143 -319 z "},"ī":{"ha":347,"x_min":0,"x_max":0,"o":"m 221 650 l 126 650 l 126 0 l 221 0 z m 363 908 l -12 908 l -12 833 l 363 833 z "},"ț":{"ha":440,"x_min":0,"x_max":0,"o":"m 418 650 l 235 650 l 235 833 l 140 833 l 140 650 l 6 650 l 6 571 l 140 571 l 140 165 b 307 -8 140 22 238 -8 b 418 11 350 -8 385 -1 l 414 93 b 332 72 389 81 358 72 b 235 192 275 72 235 94 l 235 571 l 418 571 z m 347 -62 l 249 -62 l 163 -319 l 242 -319 z "},"Å":{"ha":972,"x_min":0,"x_max":0,"o":"m 231 258 l 739 258 l 847 0 l 958 0 l 536 983 l 439 983 l 14 0 l 124 0 z m 485 872 l 701 350 l 268 350 z m 619 1181 b 486 1313 619 1256 558 1313 b 353 1181 414 1313 353 1256 b 486 1049 353 1106 414 1049 b 619 1181 558 1049 619 1106 z m 569 1181 b 486 1099 569 1135 532 1099 b 403 1181 440 1099 403 1135 b 486 1263 403 1226 440 1263 b 569 1181 532 1263 569 1226 z "},"ó":{"ha":849,"x_min":0,"x_max":0,"o":"m 771 325 b 424 667 771 521 626 667 b 78 325 222 667 78 521 b 424 -17 78 129 222 -17 b 771 325 626 -17 771 129 z m 671 325 b 424 64 671 179 575 64 b 178 325 274 64 178 179 b 424 588 178 471 274 588 b 671 325 575 588 671 471 z m 632 983 l 506 983 l 367 783 l 449 783 z "},"ņ":{"ha":807,"x_min":0,"x_max":0,"o":"m 119 650 b 125 507 124 606 125 542 l 125 0 l 219 0 l 219 333 b 417 588 219 507 317 588 b 593 360 553 588 593 496 l 593 0 l 688 0 l 688 399 b 440 667 688 560 606 667 b 218 539 349 667 254 614 l 215 539 b 210 650 215 567 213 615 z m 475 -62 l 376 -62 l 290 -319 l 369 -319 z "},"ń":{"ha":807,"x_min":0,"x_max":0,"o":"m 119 650 b 125 507 124 606 125 542 l 125 0 l 219 0 l 219 333 b 417 588 219 507 317 588 b 593 360 553 588 593 496 l 593 0 l 688 0 l 688 399 b 440 667 688 560 606 667 b 218 539 349 667 254 614 l 215 539 b 210 650 215 567 213 615 z m 610 983 l 483 983 l 344 783 l 426 783 z "},"į":{"ha":347,"x_min":0,"x_max":0,"o":"m 249 -204 b 178 -235 231 -224 203 -235 b 108 -168 140 -235 108 -207 b 215 0 108 -114 147 -68 l 221 0 l 221 650 l 126 650 l 126 0 l 149 0 b 25 -192 92 -46 25 -114 b 150 -310 25 -262 85 -310 b 275 -260 196 -310 243 -290 z m 240 900 b 174 967 240 939 207 967 b 107 900 140 967 107 939 b 174 833 107 861 140 833 b 240 900 207 833 240 861 z "},"ħ":{"ha":810,"x_min":0,"x_max":0,"o":"m 53 861 l 53 792 l 128 792 l 128 0 l 222 0 l 222 333 b 419 588 222 507 319 588 b 596 360 556 588 596 496 l 596 0 l 690 0 l 690 399 b 443 667 690 560 608 667 b 225 543 351 667 260 618 l 222 543 l 222 792 l 442 792 l 442 861 l 222 861 l 222 1050 l 128 1050 l 128 861 z "},"ĳ":{"ha":692,"x_min":0,"x_max":0,"o":"m 221 650 l 126 650 l 126 0 l 221 0 z m 240 900 b 174 967 240 939 207 967 b 107 900 140 967 107 939 b 174 833 107 861 140 833 b 240 900 207 833 240 861 z m 306 -324 b 381 -333 329 -331 361 -333 b 565 -129 528 -333 565 -233 l 565 650 l 471 650 l 471 -114 b 379 -253 471 -196 458 -253 b 319 -244 361 -253 338 -250 z m 585 900 b 518 967 585 939 551 967 b 451 900 485 967 451 939 b 518 833 451 861 485 833 b 585 900 551 833 585 861 z "},"ŵ":{"ha":1036,"x_min":0,"x_max":0,"o":"m 36 650 l 242 0 l 344 0 l 515 526 l 518 526 l 692 0 l 794 0 l 1000 650 l 900 650 l 744 122 l 742 122 l 564 650 l 472 650 l 297 122 l 294 122 l 138 650 z m 572 983 l 461 983 l 310 783 l 401 783 l 517 933 l 632 783 l 724 783 z "},"Ŭ":{"ha":986,"x_min":0,"x_max":0,"o":"m 493 -25 b 861 367 788 -25 861 203 l 861 983 l 761 983 l 761 378 b 493 64 761 219 693 64 b 225 378 293 64 225 219 l 225 983 l 125 983 l 125 367 b 493 -25 125 203 199 -25 z m 636 1261 b 493 1153 624 1189 563 1153 b 350 1261 424 1153 363 1189 l 289 1261 b 493 1078 296 1146 379 1078 b 697 1261 607 1078 690 1146 z "},"Ĉ":{"ha":1000,"x_min":0,"x_max":0,"o":"m 881 208 b 592 63 813 107 704 63 b 183 492 339 63 183 263 b 592 921 183 721 338 921 b 857 792 717 921 815 856 l 940 853 b 590 1008 872 949 735 1008 b 78 492 297 1008 78 790 b 590 -25 78 193 293 -25 b 958 158 767 -25 893 60 z m 644 1261 l 533 1261 l 382 1061 l 474 1061 l 589 1211 l 704 1061 l 796 1061 z "},"ì":{"ha":347,"x_min":0,"x_max":0,"o":"m 221 650 l 126 650 l 126 0 l 221 0 z m 138 783 l 219 783 l 81 983 l -46 983 z "},"Ċ":{"ha":1000,"x_min":0,"x_max":0,"o":"m 881 208 b 592 63 813 107 704 63 b 183 492 339 63 183 263 b 592 921 183 721 338 921 b 857 792 717 921 815 856 l 940 853 b 590 1008 872 949 735 1008 b 78 492 297 1008 78 790 b 590 -25 78 193 293 -25 b 958 158 767 -25 893 60 z m 643 1178 b 576 1244 643 1217 610 1244 b 510 1178 543 1244 510 1217 b 576 1111 510 1139 543 1111 b 643 1178 610 1111 643 1139 z "},"π":{"ha":782,"x_min":0,"x_max":0,"o":"m 736 15 l 736 83 b 678 69 718 75 699 69 b 625 144 628 69 625 104 l 625 568 l 731 568 l 731 650 l 44 650 l 44 568 l 142 568 l 142 0 l 231 0 l 231 568 l 536 568 l 536 154 b 647 -8 536 69 539 -8 b 736 15 681 -8 706 1 z "},"ū":{"ha":807,"x_min":0,"x_max":0,"o":"m 688 0 b 682 143 683 44 682 108 l 682 650 l 588 650 l 588 317 b 390 63 588 143 490 63 b 214 290 254 63 214 154 l 214 650 l 119 650 l 119 251 b 367 -17 119 90 201 -17 b 589 111 458 -17 553 36 l 592 111 b 597 0 592 83 594 35 z m 590 908 l 215 908 l 215 833 l 590 833 z "},"Ũ":{"ha":986,"x_min":0,"x_max":0,"o":"m 493 -25 b 861 367 788 -25 861 203 l 861 983 l 761 983 l 761 378 b 493 64 761 219 693 64 b 225 378 293 64 225 219 l 225 983 l 125 983 l 125 367 b 493 -25 125 203 199 -25 z m 328 1078 b 396 1147 336 1113 354 1147 b 489 1115 425 1147 457 1132 b 590 1083 521 1099 557 1083 b 718 1228 674 1083 706 1156 l 658 1228 b 590 1158 650 1193 632 1158 b 497 1190 563 1158 531 1175 b 396 1222 464 1207 429 1222 b 268 1078 313 1222 281 1150 z "},"≤":{"ha":925,"x_min":0,"x_max":0,"o":"m 811 150 l 811 240 l 229 456 l 811 674 l 811 764 l 114 501 l 114 411 z m 811 8 l 811 90 l 114 90 l 114 8 z "}," ":{"ha":347,"x_min":0,"x_max":0,"o":""},"Ŵ":{"ha":1350,"x_min":0,"x_max":0,"o":"m 125 983 l 19 983 l 310 0 l 426 0 l 674 844 l 676 844 l 924 0 l 1040 0 l 1331 983 l 1225 983 l 985 138 l 982 138 l 736 983 l 617 983 l 371 138 l 368 138 z m 731 1261 l 619 1261 l 468 1061 l 560 1061 l 675 1211 l 790 1061 l 882 1061 z "},"¹":{"ha":514,"x_min":0,"x_max":0,"o":"m 322 983 l 251 983 l 96 856 l 149 799 l 238 878 l 238 397 l 322 397 z "},"¾":{"ha":1167,"x_min":0,"x_max":0,"o":"m 1004 586 l 910 586 l 667 208 l 667 136 l 928 136 l 928 0 l 1004 0 l 1004 136 l 1088 136 l 1088 211 l 1004 211 z m 928 472 l 928 211 l 754 211 l 924 472 z m 190 672 l 228 672 b 361 571 294 672 361 646 b 250 469 361 503 307 469 b 133 554 196 469 151 500 l 54 528 b 250 394 92 436 163 394 b 444 571 354 394 444 456 b 349 713 444 640 407 690 b 428 842 396 738 428 783 b 251 1000 428 947 347 1000 b 75 893 181 1000 117 967 l 144 857 b 249 926 168 901 207 926 b 344 840 301 926 344 892 b 228 743 344 769 293 743 l 190 743 z m 926 989 l 856 1026 l 229 -6 l 301 -43 z "},"Ω":{"ha":1033,"x_min":0,"x_max":0,"o":"m 951 0 l 951 81 l 678 81 l 678 194 b 951 579 854 243 951 401 b 510 1001 951 825 750 1001 b 65 578 269 1001 65 825 b 339 194 65 401 165 243 l 339 81 l 65 81 l 65 0 l 414 0 l 414 251 b 158 576 246 278 158 413 b 508 917 158 774 313 917 b 858 576 706 917 858 775 b 603 251 858 411 771 281 l 603 0 z "},"Û":{"ha":986,"x_min":0,"x_max":0,"o":"m 493 -25 b 861 367 788 -25 861 203 l 861 983 l 761 983 l 761 378 b 493 64 761 219 693 64 b 225 378 293 64 225 219 l 225 983 l 125 983 l 125 367 b 493 -25 125 203 199 -25 z m 549 1261 l 438 1261 l 286 1061 l 378 1061 l 493 1211 l 608 1061 l 700 1061 z "},"ž":{"ha":614,"x_min":0,"x_max":0,"o":"m 557 650 l 63 650 l 63 571 l 431 571 l 43 67 l 43 0 l 571 0 l 571 82 l 168 82 l 557 583 z m 519 983 l 428 983 l 313 833 l 197 983 l 106 983 l 257 783 l 368 783 z "},"Ý":{"ha":836,"x_min":0,"x_max":0,"o":"m 468 424 l 836 983 l 719 983 l 421 507 l 125 983 l 0 983 l 368 424 l 368 0 l 468 0 z m 647 1261 l 521 1261 l 382 1061 l 464 1061 z "},"ŧ":{"ha":440,"x_min":0,"x_max":0,"o":"m 17 436 l 17 367 l 140 367 l 140 165 b 307 -8 140 22 238 -8 b 418 11 350 -8 385 -1 l 414 93 b 332 72 389 81 358 72 b 235 192 275 72 235 94 l 235 367 l 406 367 l 406 436 l 235 436 l 235 571 l 418 571 l 418 650 l 235 650 l 235 833 l 140 833 l 140 650 l 6 650 l 6 571 l 140 571 l 140 436 z "},"î":{"ha":347,"x_min":0,"x_max":0,"o":"m 221 650 l 126 650 l 126 0 l 221 0 z m 232 983 l 121 983 l -31 783 l 61 783 l 176 933 l 292 783 l 383 783 z "},"ĩ":{"ha":347,"x_min":0,"x_max":0,"o":"m 221 650 l 126 650 l 126 0 l 221 0 z m 11 800 b 79 869 19 835 38 869 b 172 838 108 869 140 854 b 274 806 204 821 240 806 b 401 950 357 806 389 878 l 342 950 b 274 881 333 915 315 881 b 181 913 246 881 214 897 b 79 944 147 929 113 944 b -49 800 -4 944 -36 872 z "},"ș":{"ha":617,"x_min":0,"x_max":0,"o":"m 543 550 b 315 667 501 624 406 667 b 83 478 197 667 83 610 b 269 303 83 354 193 321 b 461 178 393 274 461 246 b 308 64 461 93 389 64 b 128 165 232 64 161 108 l 53 110 b 310 -17 113 22 211 -17 b 554 185 429 -17 554 36 b 329 375 554 286 482 343 b 174 486 222 397 174 425 b 311 588 174 558 243 588 b 471 496 383 588 443 550 z m 379 -62 l 281 -62 l 194 -319 l 274 -319 z "},"Ã":{"ha":972,"x_min":0,"x_max":0,"o":"m 231 258 l 739 258 l 847 0 l 958 0 l 536 983 l 439 983 l 14 0 l 124 0 z m 485 872 l 701 350 l 268 350 z m 321 1078 b 389 1147 329 1113 347 1147 b 482 1115 418 1147 450 1132 b 583 1083 514 1099 550 1083 b 711 1228 667 1083 699 1156 l 651 1228 b 583 1158 643 1193 625 1158 b 490 1190 556 1158 524 1175 b 389 1222 457 1207 422 1222 b 261 1078 306 1222 274 1150 z "},"ġ":{"ha":878,"x_min":0,"x_max":0,"o":"m 92 -203 b 404 -333 168 -283 285 -333 b 757 6 692 -333 757 -136 l 757 650 l 663 650 l 663 538 l 660 538 b 414 667 608 621 508 667 b 78 331 211 667 78 515 b 414 0 78 140 211 0 b 660 128 508 0 610 47 l 663 128 l 663 6 b 408 -250 663 -135 594 -250 b 160 -131 310 -250 211 -197 z m 178 333 b 424 588 178 469 267 588 b 674 333 569 588 674 469 b 424 81 674 183 569 81 b 178 333 267 81 178 197 z m 493 900 b 426 967 493 939 460 967 b 360 900 393 967 360 939 b 426 833 360 861 393 833 b 493 900 460 833 493 861 z "},"û":{"ha":807,"x_min":0,"x_max":0,"o":"m 688 0 b 682 143 683 44 682 108 l 682 650 l 588 650 l 588 317 b 390 63 588 143 490 63 b 214 290 254 63 214 154 l 214 650 l 119 650 l 119 251 b 367 -17 119 90 201 -17 b 589 111 458 -17 553 36 l 592 111 b 597 0 592 83 594 35 z m 457 983 l 346 983 l 194 783 l 286 783 l 401 933 l 517 783 l 608 783 z "},"ù":{"ha":807,"x_min":0,"x_max":0,"o":"m 688 0 b 682 143 683 44 682 108 l 682 650 l 588 650 l 588 317 b 390 63 588 143 490 63 b 214 290 254 63 214 154 l 214 650 l 119 650 l 119 251 b 367 -17 119 90 201 -17 b 589 111 458 -17 553 36 l 592 111 b 597 0 592 83 594 35 z m 385 783 l 467 783 l 328 983 l 201 983 z "},"Ţ":{"ha":792,"x_min":0,"x_max":0,"o":"m 446 894 l 775 894 l 775 983 l 17 983 l 17 894 l 346 894 l 346 0 l 446 0 z m 469 -62 l 371 -62 l 285 -319 l 364 -319 z "},"Ž":{"ha":794,"x_min":0,"x_max":0,"o":"m 743 983 l 58 983 l 58 894 l 618 894 l 43 83 l 43 0 l 751 0 l 751 89 l 169 89 l 743 900 z m 606 1261 l 514 1261 l 399 1111 l 283 1261 l 192 1261 l 343 1061 l 454 1061 z "},"á":{"ha":742,"x_min":0,"x_max":0,"o":"m 535 399 b 76 181 297 399 76 381 b 301 -17 76 36 203 -17 b 538 106 406 -17 478 19 l 540 106 b 550 0 540 71 544 32 l 635 0 b 624 146 628 36 624 96 l 624 431 b 371 667 624 589 511 667 b 115 574 260 667 168 626 l 168 511 b 361 588 214 557 285 588 b 535 419 474 588 535 532 z m 535 325 l 535 276 b 326 61 535 161 460 61 b 174 185 253 61 174 92 b 507 325 174 308 353 325 z m 564 983 l 438 983 l 299 783 l 381 783 z "},"Ô":{"ha":1181,"x_min":0,"x_max":0,"o":"m 1103 492 b 590 1008 1103 790 883 1008 b 78 492 297 1008 78 790 b 590 -25 78 193 297 -25 b 1103 492 883 -25 1103 193 z m 997 492 b 590 64 997 263 843 64 b 183 492 338 64 183 263 b 590 921 183 721 338 921 b 997 492 843 921 997 721 z m 646 1261 l 535 1261 l 383 1061 l 475 1061 l 590 1211 l 706 1061 l 797 1061 z "},"Ó":{"ha":1181,"x_min":0,"x_max":0,"o":"m 1103 492 b 590 1008 1103 790 883 1008 b 78 492 297 1008 78 790 b 590 -25 78 193 297 -25 b 1103 492 883 -25 1103 193 z m 997 492 b 590 64 997 263 843 64 b 183 492 338 64 183 263 b 590 921 183 721 338 921 b 997 492 843 921 997 721 z m 775 1261 l 649 1261 l 510 1061 l 592 1061 z "},"ů":{"ha":807,"x_min":0,"x_max":0,"o":"m 688 0 b 682 143 683 44 682 108 l 682 650 l 588 650 l 588 317 b 390 63 588 143 490 63 b 214 290 254 63 214 154 l 214 650 l 119 650 l 119 251 b 367 -17 119 90 201 -17 b 589 111 458 -17 553 36 l 592 111 b 597 0 592 83 594 35 z m 536 903 b 403 1035 536 978 475 1035 b 269 903 331 1035 269 978 b 403 771 269 828 331 771 b 536 903 475 771 536 828 z m 486 903 b 403 821 486 857 449 821 b 319 903 357 821 319 857 b 403 985 319 949 357 985 b 486 903 449 985 486 949 z "},"ú":{"ha":807,"x_min":0,"x_max":0,"o":"m 688 0 b 682 143 683 44 682 108 l 682 650 l 588 650 l 588 317 b 390 63 588 143 490 63 b 214 290 254 63 214 154 l 214 650 l 119 650 l 119 251 b 367 -17 119 90 201 -17 b 589 111 458 -17 553 36 l 592 111 b 597 0 592 83 594 35 z m 600 983 l 474 983 l 335 783 l 417 783 z "},"ŏ":{"ha":849,"x_min":0,"x_max":0,"o":"m 771 325 b 424 667 771 521 626 667 b 78 325 222 667 78 521 b 424 -17 78 129 222 -17 b 771 325 626 -17 771 129 z m 671 325 b 424 64 671 179 575 64 b 178 325 274 64 178 179 b 424 588 178 471 274 588 b 671 325 575 588 671 471 z m 569 983 b 426 875 557 911 496 875 b 283 983 357 875 296 911 l 222 983 b 426 800 229 868 313 800 b 631 983 540 800 624 868 z "},"ˉ":{"ha":333,"x_min":0,"x_max":0,"o":"m 354 1186 l -21 1186 l -21 1111 l 354 1111 z "},"µ":{"ha":772,"x_min":0,"x_max":0,"o":"m 100 -317 l 192 -317 l 192 24 b 344 -17 229 -3 281 -17 b 563 106 431 -17 522 40 l 565 106 l 565 0 l 664 0 b 657 143 661 47 657 96 l 657 650 l 565 650 l 565 317 b 368 67 565 157 479 67 b 192 290 235 67 192 131 l 192 650 l 100 650 z "},"Ŕ":{"ha":832,"x_min":0,"x_max":0,"o":"m 231 460 l 397 460 l 669 0 l 792 0 l 504 468 b 756 721 647 483 756 575 b 419 983 756 913 614 983 l 131 983 l 131 0 l 231 0 z m 231 897 l 408 897 b 656 721 557 897 656 850 b 404 546 656 604 564 546 l 231 546 z m 586 1261 l 460 1261 l 321 1061 l 403 1061 z "},"Ď":{"ha":1051,"x_min":0,"x_max":0,"o":"m 131 0 l 457 0 b 974 492 703 0 974 164 b 457 983 974 819 703 983 l 131 983 z m 231 894 l 429 894 b 868 492 725 894 868 694 b 429 89 868 289 725 89 l 231 89 z m 689 1261 l 597 1261 l 482 1111 l 367 1261 l 275 1261 l 426 1061 l 538 1061 z "},"±":{"ha":925,"x_min":0,"x_max":0,"o":"m 108 482 l 421 482 l 421 272 l 504 272 l 504 482 l 817 482 l 817 565 l 504 565 l 504 782 l 421 782 l 421 565 l 108 565 z m 108 67 l 817 67 l 817 150 l 108 150 z "},"ă":{"ha":742,"x_min":0,"x_max":0,"o":"m 535 399 b 76 181 297 399 76 381 b 301 -17 76 36 203 -17 b 538 106 406 -17 478 19 l 540 106 b 550 0 540 71 544 32 l 635 0 b 624 146 628 36 624 96 l 624 431 b 371 667 624 589 511 667 b 115 574 260 667 168 626 l 168 511 b 361 588 214 557 285 588 b 535 419 474 588 535 532 z m 535 325 l 535 276 b 326 61 535 161 460 61 b 174 185 253 61 174 92 b 507 325 174 308 353 325 z m 522 983 b 379 875 510 911 449 875 b 236 983 310 875 249 911 l 175 983 b 379 800 182 868 265 800 b 583 983 493 800 576 868 z "},"Ą":{"ha":972,"x_min":0,"x_max":0,"o":"m 947 -204 b 876 -235 929 -224 901 -235 b 807 -168 839 -235 807 -207 b 914 0 807 -114 846 -68 l 958 0 l 536 983 l 439 983 l 14 0 l 124 0 l 231 258 l 739 258 l 847 0 b 724 -192 790 -46 724 -114 b 849 -310 724 -262 783 -310 b 974 -260 894 -310 942 -290 z m 485 872 l 701 350 l 268 350 z "},"◊":{"ha":824,"x_min":0,"x_max":0,"o":"m 692 494 l 454 1038 l 367 1038 l 132 494 l 367 -49 l 454 -49 z m 601 494 l 411 43 l 222 494 l 411 946 z "},"ż":{"ha":614,"x_min":0,"x_max":0,"o":"m 557 650 l 63 650 l 63 571 l 431 571 l 43 67 l 43 0 l 571 0 l 571 82 l 168 82 l 557 583 z m 375 900 b 308 967 375 939 342 967 b 242 900 275 967 242 939 b 308 833 242 861 275 833 b 375 900 342 833 375 861 z "},"É":{"ha":822,"x_min":0,"x_max":0,"o":"m 231 468 l 707 468 l 707 556 l 231 556 l 231 894 l 740 894 l 740 983 l 131 983 l 131 0 l 757 0 l 757 89 l 231 89 z m 633 1261 l 507 1261 l 368 1061 l 450 1061 z "},"Ÿ":{"ha":836,"x_min":0,"x_max":0,"o":"m 468 424 l 836 983 l 719 983 l 421 507 l 125 983 l 0 983 l 368 424 l 368 0 l 468 0 z m 217 1176 b 288 1106 217 1140 246 1106 b 358 1176 329 1106 358 1140 b 288 1247 358 1213 329 1247 b 217 1176 246 1247 217 1213 z m 483 1176 b 554 1106 483 1140 513 1106 b 625 1176 596 1106 625 1140 b 554 1247 625 1213 596 1247 b 483 1176 513 1247 483 1213 z "},"ź":{"ha":614,"x_min":0,"x_max":0,"o":"m 557 650 l 63 650 l 63 571 l 431 571 l 43 67 l 43 0 l 571 0 l 571 82 l 168 82 l 557 583 z m 518 983 l 392 983 l 253 783 l 335 783 z "},"Ź":{"ha":794,"x_min":0,"x_max":0,"o":"m 743 983 l 58 983 l 58 894 l 618 894 l 43 83 l 43 0 l 751 0 l 751 89 l 169 89 l 743 900 z m 599 1261 l 472 1261 l 333 1061 l 415 1061 z "},"−":{"ha":925,"x_min":0,"x_max":0,"o":"m 817 463 l 108 463 l 108 379 l 817 379 z "},"ų":{"ha":807,"x_min":0,"x_max":0,"o":"m 699 -204 b 628 -235 681 -224 653 -235 b 558 -168 590 -235 558 -207 b 665 0 558 -114 597 -68 l 688 0 b 682 143 683 44 682 108 l 682 650 l 588 650 l 588 317 b 390 63 588 143 490 63 b 214 290 254 63 214 154 l 214 650 l 119 650 l 119 251 b 367 -17 119 90 201 -17 b 589 111 458 -17 553 36 l 592 111 b 597 0 592 83 594 35 l 599 0 b 475 -192 542 -46 475 -114 b 600 -310 475 -262 535 -310 b 725 -260 646 -310 693 -290 z "},"Đ":{"ha":1051,"x_min":0,"x_max":0,"o":"m 119 0 l 446 0 b 963 492 692 0 963 164 b 446 983 963 819 692 983 l 119 983 l 119 557 l 18 557 l 18 482 l 119 482 z m 219 482 l 578 482 l 578 557 l 219 557 l 219 892 l 414 892 b 854 492 714 892 854 694 b 414 92 854 289 714 92 l 219 92 z "},"∕":{"ha":139,"x_min":0,"x_max":0,"o":"m 413 989 l 342 1026 l -285 -6 l -212 -43 z "},"Ų":{"ha":986,"x_min":0,"x_max":0,"o":"m 493 -25 l 500 -25 b 406 -192 451 -68 406 -126 b 531 -310 406 -262 465 -310 b 656 -260 576 -310 624 -290 l 629 -204 b 558 -235 611 -224 583 -235 b 489 -168 521 -235 489 -207 b 578 -18 489 -118 521 -76 b 861 367 801 21 861 219 l 861 983 l 761 983 l 761 378 b 493 64 761 219 693 64 b 225 378 293 64 225 219 l 225 983 l 125 983 l 125 367 b 493 -25 125 203 199 -25 z "},"ě":{"ha":794,"x_min":0,"x_max":0,"o":"m 178 375 b 406 588 186 486 279 588 b 621 375 540 588 615 497 z m 717 344 b 406 667 717 522 610 667 b 78 325 221 667 78 521 b 414 -17 78 129 221 -17 b 693 121 521 -17 617 24 l 622 176 b 414 64 586 118 511 64 b 176 300 281 64 179 169 l 715 300 b 717 344 717 317 717 332 z m 615 983 l 524 983 l 408 833 l 293 983 l 201 983 l 353 783 l 464 783 z "},"Ā":{"ha":972,"x_min":0,"x_max":0,"o":"m 231 258 l 739 258 l 847 0 l 958 0 l 536 983 l 439 983 l 14 0 l 124 0 z m 485 872 l 701 350 l 268 350 z m 675 1186 l 300 1186 l 300 1111 l 675 1111 z "},"Ö":{"ha":1181,"x_min":0,"x_max":0,"o":"m 1103 492 b 590 1008 1103 790 883 1008 b 78 492 297 1008 78 790 b 590 -25 78 193 297 -25 b 1103 492 883 -25 1103 193 z m 997 492 b 590 64 997 263 843 64 b 183 492 338 64 183 263 b 590 921 183 721 338 921 b 997 492 843 921 997 721 z m 386 1176 b 457 1106 386 1140 415 1106 b 528 1176 499 1106 528 1140 b 457 1247 528 1213 499 1247 b 386 1176 415 1247 386 1213 z m 653 1176 b 724 1106 653 1140 682 1106 b 794 1176 765 1106 794 1140 b 724 1247 794 1213 765 1247 b 653 1176 682 1247 653 1213 z "},"≈":{"ha":925,"x_min":0,"x_max":0,"o":"m 828 558 l 768 558 b 658 450 756 500 725 450 b 469 501 606 450 539 475 b 271 551 401 526 332 551 b 99 358 158 551 111 456 l 161 358 b 271 469 169 415 208 469 b 456 419 321 469 388 444 b 657 368 525 393 597 368 b 828 558 767 368 818 461 z m 828 322 l 767 322 b 658 214 754 264 724 214 b 469 265 606 214 538 239 b 269 315 400 290 331 315 b 99 121 157 315 113 217 l 161 121 b 271 232 169 178 208 232 b 456 182 321 232 388 207 b 656 131 524 156 596 131 b 828 322 767 131 817 225 z "},"Ů":{"ha":986,"x_min":0,"x_max":0,"o":"m 493 -25 b 861 367 788 -25 861 203 l 861 983 l 761 983 l 761 378 b 493 64 761 219 693 64 b 225 378 293 64 225 219 l 225 983 l 125 983 l 125 367 b 493 -25 125 203 199 -25 z m 629 1181 b 496 1313 629 1256 568 1313 b 363 1181 424 1313 363 1256 b 496 1049 363 1106 424 1049 b 629 1181 568 1049 629 1106 z m 579 1181 b 496 1099 579 1135 542 1099 b 413 1181 450 1099 413 1135 b 496 1263 413 1226 450 1263 b 579 1181 542 1263 579 1226 z "},"ü":{"ha":807,"x_min":0,"x_max":0,"o":"m 688 0 b 682 143 683 44 682 108 l 682 650 l 588 650 l 588 317 b 390 63 588 143 490 63 b 214 290 254 63 214 154 l 214 650 l 119 650 l 119 251 b 367 -17 119 90 201 -17 b 589 111 458 -17 553 36 l 592 111 b 597 0 592 83 594 35 z m 197 899 b 268 828 197 863 226 828 b 339 899 310 828 339 863 b 268 969 339 935 310 969 b 197 899 226 969 197 935 z m 464 899 b 535 828 464 863 493 828 b 606 899 576 828 606 863 b 535 969 606 935 576 969 b 464 899 493 969 464 935 z "},"ŝ":{"ha":617,"x_min":0,"x_max":0,"o":"m 543 550 b 315 667 501 624 406 667 b 83 478 197 667 83 610 b 269 303 83 354 193 321 b 461 178 393 274 461 246 b 308 64 461 93 389 64 b 128 165 232 64 161 108 l 53 110 b 310 -17 113 22 211 -17 b 554 185 429 -17 554 36 b 329 375 554 286 482 343 b 174 486 222 397 174 425 b 311 588 174 558 243 588 b 471 496 383 588 443 550 z m 375 983 l 264 983 l 113 783 l 204 783 l 319 933 l 435 783 l 526 783 z "},"∫":{"ha":754,"x_min":0,"x_max":0,"o":"m 564 1022 b 467 1092 564 1074 508 1092 b 301 699 271 1092 301 826 l 301 11 l 300 -18 b 256 -239 300 -39 306 -239 b 186 -186 232 -239 233 -186 b 140 -231 161 -186 140 -206 b 224 -296 140 -276 185 -296 b 393 65 401 -296 393 -53 l 393 765 b 440 1031 393 793 375 1031 b 513 975 465 1031 463 975 b 564 1022 542 975 564 992 z "},"ý":{"ha":678,"x_min":0,"x_max":0,"o":"m 128 650 l 22 650 l 300 1 l 247 -135 b 122 -250 219 -208 186 -250 b 53 -239 97 -250 74 -246 l 43 -325 b 128 -333 71 -331 100 -333 b 332 -168 240 -333 293 -268 l 656 650 l 553 650 l 351 101 l 349 101 z m 554 983 l 428 983 l 289 783 l 371 783 z "},"Ū":{"ha":986,"x_min":0,"x_max":0,"o":"m 493 -25 b 861 367 788 -25 861 203 l 861 983 l 761 983 l 761 378 b 493 64 761 219 693 64 b 225 378 293 64 225 219 l 225 983 l 125 983 l 125 367 b 493 -25 125 203 199 -25 z m 682 1186 l 307 1186 l 307 1111 l 682 1111 z "},"í":{"ha":347,"x_min":0,"x_max":0,"o":"m 221 650 l 126 650 l 126 0 l 221 0 z m 392 983 l 265 983 l 126 783 l 208 783 z "},"Ë":{"ha":822,"x_min":0,"x_max":0,"o":"m 231 468 l 707 468 l 707 556 l 231 556 l 231 894 l 740 894 l 740 983 l 131 983 l 131 0 l 757 0 l 757 89 l 231 89 z m 235 1176 b 306 1106 235 1140 264 1106 b 376 1176 347 1106 376 1140 b 306 1247 376 1213 347 1247 b 235 1176 264 1247 235 1213 z m 501 1176 b 572 1106 501 1140 531 1106 b 643 1176 614 1106 643 1140 b 572 1247 643 1213 614 1247 b 501 1176 531 1247 501 1213 z "},"Ò":{"ha":1181,"x_min":0,"x_max":0,"o":"m 1103 492 b 590 1008 1103 790 883 1008 b 78 492 297 1008 78 790 b 590 -25 78 193 297 -25 b 1103 492 883 -25 1103 193 z m 997 492 b 590 64 997 263 843 64 b 183 492 338 64 183 263 b 590 921 183 721 338 921 b 997 492 843 921 997 721 z m 610 1061 l 692 1061 l 553 1261 l 426 1261 z "},"Š":{"ha":783,"x_min":0,"x_max":0,"o":"m 686 889 b 408 1008 639 953 540 1008 b 94 738 264 1008 94 928 b 358 463 94 560 228 503 b 599 251 483 424 599 389 b 381 61 599 125 482 61 b 156 185 278 61 199 115 l 69 121 b 379 -25 140 24 260 -25 b 700 258 535 -25 700 61 b 408 546 700 456 547 500 b 194 739 299 582 194 614 b 404 924 194 865 307 924 b 607 825 497 924 565 885 z m 604 1261 l 513 1261 l 397 1111 l 282 1261 l 190 1261 l 342 1061 l 453 1061 z "},"ŀ":{"ha":433,"x_min":0,"x_max":0,"o":"m 222 1050 l 128 1050 l 128 0 l 222 0 z m 433 636 b 367 703 433 675 400 703 b 300 636 333 703 300 675 b 367 569 300 597 333 569 b 433 636 400 569 433 597 z "},"Ù":{"ha":986,"x_min":0,"x_max":0,"o":"m 493 -25 b 861 367 788 -25 861 203 l 861 983 l 761 983 l 761 378 b 493 64 761 219 693 64 b 225 378 293 64 225 219 l 225 983 l 125 983 l 125 367 b 493 -25 125 203 199 -25 z m 494 1061 l 576 1061 l 438 1261 l 311 1261 z "},"ℓ":{"ha":694,"x_min":0,"x_max":0,"o":"m 576 57 l 543 106 l 540 106 b 418 53 499 68 456 53 b 314 174 371 53 314 78 l 314 382 b 551 824 468 540 551 688 b 399 1001 551 935 488 1001 b 219 758 299 1001 219 913 l 219 399 l 100 282 l 136 231 l 139 231 l 219 317 l 219 158 b 396 -19 219 39 294 -19 b 576 57 461 -19 521 6 z m 472 817 b 314 465 472 713 417 585 l 314 774 b 399 935 314 885 356 935 b 472 817 440 935 472 888 z "},"È":{"ha":822,"x_min":0,"x_max":0,"o":"m 231 468 l 707 468 l 707 556 l 231 556 l 231 894 l 740 894 l 740 983 l 131 983 l 131 0 l 757 0 l 757 89 l 231 89 z m 439 1061 l 521 1061 l 382 1261 l 256 1261 z "},"ľ":{"ha":404,"x_min":0,"x_max":0,"o":"m 222 1050 l 128 1050 l 128 0 l 222 0 z m 486 983 l 388 983 l 301 726 l 381 726 z "},"Â":{"ha":972,"x_min":0,"x_max":0,"o":"m 231 258 l 739 258 l 847 0 l 958 0 l 536 983 l 439 983 l 14 0 l 124 0 z m 485 872 l 701 350 l 268 350 z m 540 1261 l 429 1261 l 278 1061 l 369 1061 l 485 1211 l 600 1061 l 692 1061 z "},"­":{"ha":444,"x_min":0,"x_max":0,"o":"m 378 376 l 67 376 l 67 297 l 378 297 z "},"ť":{"ha":454,"x_min":0,"x_max":0,"o":"m 418 650 l 235 650 l 235 833 l 140 833 l 140 650 l 6 650 l 6 571 l 140 571 l 140 165 b 307 -8 140 22 238 -8 b 418 11 350 -8 385 -1 l 414 93 b 332 72 389 81 358 72 b 235 192 275 72 235 94 l 235 571 l 418 571 z m 497 1015 l 399 1015 l 313 758 l 392 758 z "},"Ŧ":{"ha":792,"x_min":0,"x_max":0,"o":"m 101 754 l 101 685 l 346 685 l 346 0 l 446 0 l 446 685 l 676 685 l 676 754 l 446 754 l 446 894 l 775 894 l 775 983 l 17 983 l 17 894 l 346 894 l 346 754 z "},"Ō":{"ha":1181,"x_min":0,"x_max":0,"o":"m 1103 492 b 590 1008 1103 790 883 1008 b 78 492 297 1008 78 790 b 590 -25 78 193 297 -25 b 1103 492 883 -25 1103 193 z m 997 492 b 590 64 997 263 843 64 b 183 492 338 64 183 263 b 590 921 183 721 338 921 b 997 492 843 921 997 721 z m 783 1186 l 408 1186 l 408 1111 l 783 1111 z "},"Ŏ":{"ha":1181,"x_min":0,"x_max":0,"o":"m 1103 492 b 590 1008 1103 790 883 1008 b 78 492 297 1008 78 790 b 590 -25 78 193 297 -25 b 1103 492 883 -25 1103 193 z m 997 492 b 590 64 997 263 843 64 b 183 492 338 64 183 263 b 590 921 183 721 338 921 b 997 492 843 921 997 721 z m 738 1261 b 594 1153 725 1189 664 1153 b 451 1261 525 1153 464 1189 l 390 1261 b 594 1078 397 1146 481 1078 b 799 1261 708 1078 792 1146 z "},"ķ":{"ha":708,"x_min":0,"x_max":0,"o":"m 222 1050 l 128 1050 l 128 0 l 222 0 l 222 342 l 226 342 l 557 0 l 696 0 l 335 353 l 663 650 l 526 650 l 226 357 l 222 357 z m 457 -62 l 358 -62 l 272 -319 l 351 -319 z "},"ĥ":{"ha":810,"x_min":0,"x_max":0,"o":"m 222 543 l 222 1050 l 128 1050 l 128 0 l 222 0 l 222 333 b 419 588 222 507 319 588 b 596 360 556 588 596 496 l 596 0 l 690 0 l 690 399 b 443 667 690 560 608 667 b 225 543 351 667 260 618 z m 456 1306 l 344 1306 l 193 1106 l 285 1106 l 400 1256 l 515 1106 l 607 1106 z "},"ŭ":{"ha":807,"x_min":0,"x_max":0,"o":"m 688 0 b 682 143 683 44 682 108 l 682 650 l 588 650 l 588 317 b 390 63 588 143 490 63 b 214 290 254 63 214 154 l 214 650 l 119 650 l 119 251 b 367 -17 119 90 201 -17 b 589 111 458 -17 553 36 l 592 111 b 597 0 592 83 594 35 z m 549 983 b 406 875 536 911 475 875 b 263 983 336 875 275 911 l 201 983 b 406 800 208 868 292 800 b 610 983 519 800 603 868 z "},"Ř":{"ha":832,"x_min":0,"x_max":0,"o":"m 231 460 l 397 460 l 669 0 l 792 0 l 504 468 b 756 721 647 483 756 575 b 419 983 756 913 614 983 l 131 983 l 131 0 l 231 0 z m 231 897 l 408 897 b 656 721 557 897 656 850 b 404 546 656 604 564 546 l 231 546 z m 607 1261 l 515 1261 l 400 1111 l 285 1261 l 193 1261 l 344 1061 l 456 1061 z "},"Þ":{"ha":806,"x_min":0,"x_max":0,"o":"m 131 0 l 231 0 l 231 242 l 406 242 b 740 506 606 242 740 329 b 408 768 740 682 608 768 l 231 768 l 231 983 l 131 983 z m 231 679 l 392 679 b 632 506 543 679 632 626 b 392 329 632 389 547 329 l 231 329 z "},"Ş":{"ha":783,"x_min":0,"x_max":0,"o":"m 686 889 b 408 1008 639 953 540 1008 b 94 738 264 1008 94 928 b 358 463 94 560 228 503 b 599 251 483 424 599 389 b 381 61 599 125 482 61 b 156 185 278 61 199 115 l 69 121 b 356 -24 135 29 244 -18 l 285 -136 l 310 -157 b 369 -146 328 -150 350 -146 b 444 -200 415 -146 444 -164 b 356 -261 444 -246 385 -261 b 256 -242 321 -261 286 -256 l 233 -292 b 364 -319 272 -310 326 -319 b 528 -199 439 -319 528 -292 b 414 -99 528 -132 469 -99 b 365 -104 393 -99 379 -100 l 415 -24 b 700 258 560 -11 700 76 b 408 546 700 456 547 500 b 194 739 299 582 194 614 b 404 924 194 865 307 924 b 607 825 497 924 565 885 z "},"Ğ":{"ha":1082,"x_min":0,"x_max":0,"o":"m 946 876 b 590 1008 863 958 746 1008 b 78 492 297 1008 78 790 b 590 -25 78 193 293 -25 b 957 71 724 -25 850 7 l 957 514 l 628 514 l 628 426 l 857 426 l 857 128 b 592 64 800 90 703 64 b 183 492 339 64 183 263 b 592 921 183 721 339 921 b 876 807 714 921 808 879 z m 735 1261 b 592 1153 722 1189 661 1153 b 449 1261 522 1153 461 1189 l 388 1261 b 592 1078 394 1146 478 1078 b 796 1261 706 1078 789 1146 z "},"â":{"ha":742,"x_min":0,"x_max":0,"o":"m 535 399 b 76 181 297 399 76 381 b 301 -17 76 36 203 -17 b 538 106 406 -17 478 19 l 540 106 b 550 0 540 71 544 32 l 635 0 b 624 146 628 36 624 96 l 624 431 b 371 667 624 589 511 667 b 115 574 260 667 168 626 l 168 511 b 361 588 214 557 285 588 b 535 419 474 588 535 532 z m 535 325 l 535 276 b 326 61 535 161 460 61 b 174 185 253 61 174 92 b 507 325 174 308 353 325 z m 429 983 l 318 983 l 167 783 l 258 783 l 374 933 l 489 783 l 581 783 z "},"À":{"ha":972,"x_min":0,"x_max":0,"o":"m 231 258 l 739 258 l 847 0 l 958 0 l 536 983 l 439 983 l 14 0 l 124 0 z m 485 872 l 701 350 l 268 350 z m 450 1061 l 532 1061 l 393 1261 l 267 1261 z "},"Á":{"ha":972,"x_min":0,"x_max":0,"o":"m 231 258 l 739 258 l 847 0 l 958 0 l 536 983 l 439 983 l 14 0 l 124 0 z m 485 872 l 701 350 l 268 350 z m 710 1261 l 583 1261 l 444 1061 l 526 1061 z "},"Ē":{"ha":822,"x_min":0,"x_max":0,"o":"m 231 468 l 707 468 l 707 556 l 231 556 l 231 894 l 740 894 l 740 983 l 131 983 l 131 0 l 757 0 l 757 89 l 231 89 z m 628 1186 l 253 1186 l 253 1111 l 628 1111 z "},"¬":{"ha":925,"x_min":0,"x_max":0,"o":"m 817 567 l 108 567 l 108 483 l 733 483 l 733 181 l 817 181 z "},"Ç":{"ha":1000,"x_min":0,"x_max":0,"o":"m 881 208 b 592 63 813 107 704 63 b 183 492 339 63 183 263 b 592 921 183 721 338 921 b 857 792 717 921 815 856 l 940 853 b 590 1008 872 949 735 1008 b 78 492 297 1008 78 790 b 533 -22 78 213 265 4 l 461 -136 l 486 -157 b 546 -146 504 -150 526 -146 b 621 -200 592 -146 621 -164 b 532 -261 621 -246 561 -261 b 432 -242 497 -261 463 -256 l 410 -292 b 540 -319 449 -310 503 -319 b 704 -199 615 -319 704 -292 b 590 -99 704 -132 646 -99 b 542 -104 569 -99 556 -100 l 590 -25 b 958 158 767 -25 893 60 z "},"Ŗ":{"ha":832,"x_min":0,"x_max":0,"o":"m 231 460 l 397 460 l 669 0 l 792 0 l 504 468 b 756 721 647 483 756 575 b 419 983 756 913 614 983 l 131 983 l 131 0 l 231 0 z m 231 897 l 408 897 b 656 721 557 897 656 850 b 404 546 656 604 564 546 l 231 546 z m 508 -62 l 410 -62 l 324 -319 l 403 -319 z "},"Ĝ":{"ha":1082,"x_min":0,"x_max":0,"o":"m 946 876 b 590 1008 863 958 746 1008 b 78 492 297 1008 78 790 b 590 -25 78 193 293 -25 b 957 71 724 -25 850 7 l 957 514 l 628 514 l 628 426 l 857 426 l 857 128 b 592 64 800 90 703 64 b 183 492 339 64 183 263 b 592 921 183 721 339 921 b 876 807 714 921 808 879 z m 653 1261 l 542 1261 l 390 1061 l 482 1061 l 597 1211 l 713 1061 l 804 1061 z "},"Ű":{"ha":986,"x_min":0,"x_max":0,"o":"m 493 -25 b 861 367 788 -25 861 203 l 861 983 l 761 983 l 761 378 b 493 64 761 219 693 64 b 225 378 293 64 225 219 l 225 983 l 125 983 l 125 367 b 493 -25 125 203 199 -25 z m 590 1261 l 464 1261 l 324 1061 l 406 1061 z m 826 1261 l 700 1261 l 561 1061 l 643 1061 z "},"∂":{"ha":689,"x_min":0,"x_max":0,"o":"m 632 504 b 292 1001 632 721 558 1001 b 90 921 213 1001 150 972 l 140 861 b 296 925 189 899 232 925 b 544 546 488 925 544 700 b 543 474 544 522 543 497 b 313 590 486 543 403 590 b 43 294 143 590 43 456 b 319 -17 43 132 146 -17 b 632 504 588 -17 632 300 z m 536 386 b 321 57 529 260 482 57 b 131 292 194 57 131 181 b 321 513 131 407 196 513 b 536 386 408 513 486 453 z "},"∆":{"ha":931,"x_min":0,"x_max":0,"o":"m 913 0 l 514 989 l 411 989 l 21 0 z m 779 86 l 147 86 l 461 896 z "},"à":{"ha":742,"x_min":0,"x_max":0,"o":"m 535 399 b 76 181 297 399 76 381 b 301 -17 76 36 203 -17 b 538 106 406 -17 478 19 l 540 106 b 550 0 540 71 544 32 l 635 0 b 624 146 628 36 624 96 l 624 431 b 371 667 624 589 511 667 b 115 574 260 667 168 626 l 168 511 b 361 588 214 557 285 588 b 535 419 474 588 535 532 z m 535 325 l 535 276 b 326 61 535 161 460 61 b 174 185 253 61 174 92 b 507 325 174 308 353 325 z m 383 783 l 465 783 l 326 983 l 200 983 z "},"Ť":{"ha":792,"x_min":0,"x_max":0,"o":"m 446 894 l 775 894 l 775 983 l 17 983 l 17 894 l 346 894 l 346 0 l 446 0 z m 603 1261 l 511 1261 l 396 1111 l 281 1261 l 189 1261 l 340 1061 l 451 1061 z "},"š":{"ha":617,"x_min":0,"x_max":0,"o":"m 543 550 b 315 667 501 624 406 667 b 83 478 197 667 83 610 b 269 303 83 354 193 321 b 461 178 393 274 461 246 b 308 64 461 93 389 64 b 128 165 232 64 161 108 l 53 110 b 310 -17 113 22 211 -17 b 554 185 429 -17 554 36 b 329 375 554 286 482 343 b 174 486 222 397 174 425 b 311 588 174 558 243 588 b 471 496 383 588 443 550 z m 526 983 l 435 983 l 319 833 l 204 983 l 113 983 l 264 783 l 375 783 z "},"\r":{"ha":0,"x_min":0,"x_max":0,"o":""},"Ľ":{"ha":708,"x_min":0,"x_max":0,"o":"m 231 983 l 131 983 l 131 0 l 689 0 l 689 89 l 231 89 z m 522 983 l 424 983 l 338 726 l 417 726 z "},"ş":{"ha":617,"x_min":0,"x_max":0,"o":"m 543 550 b 315 667 501 624 406 667 b 83 478 197 667 83 610 b 269 303 83 354 193 321 b 461 178 393 274 461 246 b 308 64 461 93 389 64 b 128 165 232 64 161 108 l 53 110 b 288 -15 108 28 197 -10 l 213 -136 l 238 -157 b 297 -146 256 -150 278 -146 b 372 -200 343 -146 372 -164 b 283 -261 372 -246 313 -261 b 183 -242 249 -261 214 -256 l 161 -292 b 292 -319 200 -310 254 -319 b 456 -199 367 -319 456 -292 b 342 -99 456 -132 397 -99 b 293 -104 321 -99 307 -100 l 349 -14 b 554 185 456 -3 554 53 b 329 375 554 286 482 343 b 174 486 222 397 174 425 b 311 588 174 558 243 588 b 471 496 383 588 443 550 z "},"¼":{"ha":1167,"x_min":0,"x_max":0,"o":"m 1004 586 l 910 586 l 667 208 l 667 136 l 928 136 l 928 0 l 1004 0 l 1004 136 l 1088 136 l 1088 211 l 1004 211 z m 928 472 l 928 211 l 754 211 l 924 472 z m 322 983 l 251 983 l 96 856 l 149 799 l 238 878 l 238 397 l 322 397 z m 926 989 l 856 1026 l 229 -6 l 301 -43 z "},"Ī":{"ha":361,"x_min":0,"x_max":0,"o":"m 231 983 l 131 983 l 131 0 l 231 0 z m 369 1186 l -6 1186 l -6 1111 l 369 1111 z "},"Ś":{"ha":783,"x_min":0,"x_max":0,"o":"m 686 889 b 408 1008 639 953 540 1008 b 94 738 264 1008 94 928 b 358 463 94 560 228 503 b 599 251 483 424 599 389 b 381 61 599 125 482 61 b 156 185 278 61 199 115 l 69 121 b 379 -25 140 24 260 -25 b 700 258 535 -25 700 61 b 408 546 700 456 547 500 b 194 739 299 582 194 614 b 404 924 194 865 307 924 b 607 825 497 924 565 885 z m 603 1261 l 476 1261 l 338 1061 l 419 1061 z "},"Ż":{"ha":794,"x_min":0,"x_max":0,"o":"m 743 983 l 58 983 l 58 894 l 618 894 l 43 83 l 43 0 l 751 0 l 751 89 l 169 89 l 743 900 z m 463 1178 b 396 1244 463 1217 429 1244 b 329 1178 363 1244 329 1217 b 396 1111 329 1139 363 1111 b 463 1178 429 1111 463 1139 z "},"Ă":{"ha":972,"x_min":0,"x_max":0,"o":"m 231 258 l 739 258 l 847 0 l 958 0 l 536 983 l 439 983 l 14 0 l 124 0 z m 485 872 l 701 350 l 268 350 z m 631 1261 b 488 1153 618 1189 557 1153 b 344 1261 418 1153 357 1189 l 283 1261 b 488 1078 290 1146 374 1078 b 692 1261 601 1078 685 1146 z "},"∞":{"ha":1029,"x_min":0,"x_max":0,"o":"m 972 350 b 775 553 972 465 893 553 b 515 396 665 553 589 465 b 249 551 442 465 357 551 b 57 346 131 551 57 458 b 251 144 57 232 135 144 b 515 293 364 144 435 226 b 778 144 588 224 671 144 b 972 350 897 144 972 235 z m 893 346 b 782 225 893 278 853 225 b 568 344 699 225 626 293 b 778 474 622 394 700 474 b 893 346 853 474 893 417 z m 463 346 b 253 225 413 297 326 225 b 136 347 179 225 136 276 b 247 472 136 413 176 472 b 463 346 325 472 407 393 z "},"Δ":{"ha":931,"x_min":0,"x_max":0,"o":"m 913 0 l 514 989 l 411 989 l 21 0 z m 779 86 l 147 86 l 461 896 z "},"Ő":{"ha":1181,"x_min":0,"x_max":0,"o":"m 1103 492 b 590 1008 1103 790 883 1008 b 78 492 297 1008 78 790 b 590 -25 78 193 297 -25 b 1103 492 883 -25 1103 193 z m 997 492 b 590 64 997 263 843 64 b 183 492 338 64 183 263 b 590 921 183 721 338 921 b 997 492 843 921 997 721 z m 696 1261 l 569 1261 l 429 1061 l 511 1061 z m 932 1261 l 806 1261 l 667 1061 l 749 1061 z "},"ä":{"ha":742,"x_min":0,"x_max":0,"o":"m 535 399 b 76 181 297 399 76 381 b 301 -17 76 36 203 -17 b 538 106 406 -17 478 19 l 540 106 b 550 0 540 71 544 32 l 635 0 b 624 146 628 36 624 96 l 624 431 b 371 667 624 589 511 667 b 115 574 260 667 168 626 l 168 511 b 361 588 214 557 285 588 b 535 419 474 588 535 532 z m 535 325 l 535 276 b 326 61 535 161 460 61 b 174 185 253 61 174 92 b 507 325 174 308 353 325 z m 165 899 b 236 828 165 863 194 828 b 307 899 278 828 307 863 b 236 969 307 935 278 969 b 165 899 194 969 165 935 z m 432 899 b 503 828 432 863 461 828 b 574 899 544 828 574 863 b 503 969 574 935 544 969 b 432 899 461 969 432 935 z "},"Ω":{"ha":1033,"x_min":0,"x_max":0,"o":"m 951 0 l 951 81 l 678 81 l 678 194 b 951 579 854 243 951 401 b 510 1001 951 825 750 1001 b 65 578 269 1001 65 825 b 339 194 65 401 165 243 l 339 81 l 65 81 l 65 0 l 414 0 l 414 251 b 158 576 246 278 158 413 b 508 917 158 774 313 917 b 858 576 706 917 858 775 b 603 251 858 411 771 281 l 603 0 z "},"Ĕ":{"ha":822,"x_min":0,"x_max":0,"o":"m 231 468 l 707 468 l 707 556 l 231 556 l 231 894 l 740 894 l 740 983 l 131 983 l 131 0 l 757 0 l 757 89 l 231 89 z m 582 1261 b 439 1153 569 1189 508 1153 b 296 1261 369 1153 308 1189 l 235 1261 b 439 1078 242 1146 325 1078 b 643 1261 553 1078 636 1146 z "},"Ê":{"ha":822,"x_min":0,"x_max":0,"o":"m 231 468 l 707 468 l 707 556 l 231 556 l 231 894 l 740 894 l 740 983 l 131 983 l 131 0 l 757 0 l 757 89 l 231 89 z m 494 1261 l 383 1261 l 232 1061 l 324 1061 l 439 1211 l 554 1061 l 646 1061 z "},"İ":{"ha":361,"x_min":0,"x_max":0,"o":"m 231 983 l 131 983 l 131 0 l 231 0 z m 249 1178 b 182 1244 249 1217 215 1244 b 115 1178 149 1244 115 1217 b 182 1111 115 1139 149 1111 b 249 1178 215 1111 249 1139 z "},"÷":{"ha":925,"x_min":0,"x_max":0,"o":"m 817 463 l 108 463 l 108 379 l 817 379 z m 538 646 b 463 721 538 685 507 721 b 388 646 418 721 388 685 b 463 571 388 607 418 571 b 538 646 507 571 538 607 z m 538 196 b 463 271 538 235 507 271 b 388 196 418 271 388 235 b 463 121 388 157 418 121 b 538 196 507 121 538 157 z "},"Ï":{"ha":361,"x_min":0,"x_max":0,"o":"m 231 983 l 131 983 l 131 0 l 231 0 z m -24 1176 b 47 1106 -24 1140 6 1106 b 118 1176 89 1106 118 1140 b 47 1247 118 1213 89 1247 b -24 1176 6 1247 -24 1213 z m 243 1176 b 314 1106 243 1140 272 1106 b 385 1176 356 1106 385 1140 b 314 1247 385 1213 356 1247 b 243 1176 272 1247 243 1213 z "},"Ģ":{"ha":1088,"x_min":0,"x_max":0,"o":"m 946 876 b 590 1008 863 958 746 1008 b 78 492 297 1008 78 790 b 590 -25 78 193 293 -25 b 957 71 724 -25 850 7 l 957 514 l 628 514 l 628 426 l 857 426 l 857 128 b 592 64 800 90 703 64 b 183 492 339 64 183 263 b 592 921 183 721 339 921 b 876 807 714 921 808 879 z m 661 -62 l 563 -62 l 476 -319 l 556 -319 z "},"Ü":{"ha":986,"x_min":0,"x_max":0,"o":"m 493 -25 b 861 367 788 -25 861 203 l 861 983 l 761 983 l 761 378 b 493 64 761 219 693 64 b 225 378 293 64 225 219 l 225 983 l 125 983 l 125 367 b 493 -25 125 203 199 -25 z m 290 1176 b 361 1106 290 1140 319 1106 b 432 1176 403 1106 432 1140 b 361 1247 432 1213 403 1247 b 290 1176 319 1247 290 1213 z m 557 1176 b 628 1106 557 1140 586 1106 b 699 1176 669 1106 699 1140 b 628 1247 699 1213 669 1247 b 557 1176 586 1247 557 1213 z "},"ą":{"ha":742,"x_min":0,"x_max":0,"o":"m 653 -204 b 582 -235 635 -224 607 -235 b 513 -168 544 -235 513 -207 b 619 0 513 -114 551 -68 l 635 0 b 624 146 628 36 624 96 l 624 431 b 371 667 624 589 511 667 b 115 574 260 667 168 626 l 168 511 b 361 588 214 557 285 588 b 535 419 474 588 535 532 l 535 399 b 76 181 297 399 76 381 b 301 -17 76 36 203 -17 b 538 106 406 -17 478 19 l 540 106 b 550 0 540 71 544 32 l 553 0 b 429 -192 496 -46 429 -114 b 554 -310 429 -262 489 -310 b 679 -260 600 -310 647 -290 z m 535 325 l 535 276 b 326 61 535 161 460 61 b 174 185 253 61 174 92 b 507 325 174 308 353 325 z "},"å":{"ha":742,"x_min":0,"x_max":0,"o":"m 535 399 b 76 181 297 399 76 381 b 301 -17 76 36 203 -17 b 538 106 406 -17 478 19 l 540 106 b 550 0 540 71 544 32 l 635 0 b 624 146 628 36 624 96 l 624 431 b 371 667 624 589 511 667 b 115 574 260 667 168 626 l 168 511 b 361 588 214 557 285 588 b 535 419 474 588 535 532 z m 535 325 l 535 276 b 326 61 535 161 460 61 b 174 185 253 61 174 92 b 507 325 174 308 353 325 z m 501 903 b 368 1035 501 978 440 1035 b 235 903 296 1035 235 978 b 368 771 235 828 296 771 b 501 903 440 771 501 828 z m 451 903 b 368 821 451 857 414 821 b 285 903 322 821 285 857 b 368 985 285 949 322 985 b 451 903 414 985 451 949 z "},"Ė":{"ha":822,"x_min":0,"x_max":0,"o":"m 231 468 l 707 468 l 707 556 l 231 556 l 231 894 l 740 894 l 740 983 l 131 983 l 131 0 l 757 0 l 757 89 l 231 89 z m 513 1178 b 446 1244 513 1217 479 1244 b 379 1178 413 1244 379 1217 b 446 1111 379 1139 413 1111 b 513 1178 479 1111 513 1139 z "},"Ŝ":{"ha":783,"x_min":0,"x_max":0,"o":"m 686 889 b 408 1008 639 953 540 1008 b 94 738 264 1008 94 928 b 358 463 94 560 228 503 b 599 251 483 424 599 389 b 381 61 599 125 482 61 b 156 185 278 61 199 115 l 69 121 b 379 -25 140 24 260 -25 b 700 258 535 -25 700 61 b 408 546 700 456 547 500 b 194 739 299 582 194 614 b 404 924 194 865 307 924 b 607 825 497 924 565 885 z m 463 1261 l 351 1261 l 200 1061 l 292 1061 l 407 1211 l 522 1061 l 614 1061 z "},"Ŷ":{"ha":836,"x_min":0,"x_max":0,"o":"m 468 424 l 836 983 l 719 983 l 421 507 l 125 983 l 0 983 l 368 424 l 368 0 l 468 0 z m 476 1261 l 365 1261 l 214 1061 l 306 1061 l 421 1211 l 536 1061 l 628 1061 z "},"Ț":{"ha":792,"x_min":0,"x_max":0,"o":"m 446 894 l 775 894 l 775 983 l 17 983 l 17 894 l 346 894 l 346 0 l 446 0 z m 469 -62 l 371 -62 l 285 -319 l 364 -319 z "},"Ň":{"ha":1061,"x_min":0,"x_max":0,"o":"m 256 983 l 131 983 l 131 0 l 231 0 l 231 846 l 233 846 l 806 0 l 931 0 l 931 983 l 831 983 l 831 146 l 828 146 z m 739 1261 l 647 1261 l 532 1111 l 417 1261 l 325 1261 l 476 1061 l 588 1061 z "},"Ñ":{"ha":1061,"x_min":0,"x_max":0,"o":"m 256 983 l 131 983 l 131 0 l 231 0 l 231 846 l 233 846 l 806 0 l 931 0 l 931 983 l 831 983 l 831 146 l 828 146 z m 369 1078 b 438 1147 378 1113 396 1147 b 531 1115 467 1147 499 1132 b 632 1083 563 1099 599 1083 b 760 1228 715 1083 747 1156 l 700 1228 b 632 1158 692 1193 674 1158 b 539 1190 604 1158 572 1175 b 438 1222 506 1207 471 1222 b 310 1078 354 1222 322 1150 z "},"Č":{"ha":1000,"x_min":0,"x_max":0,"o":"m 881 208 b 592 63 813 107 704 63 b 183 492 339 63 183 263 b 592 921 183 721 338 921 b 857 792 717 921 815 856 l 940 853 b 590 1008 872 949 735 1008 b 78 492 297 1008 78 790 b 590 -25 78 193 293 -25 b 958 158 767 -25 893 60 z m 794 1261 l 703 1261 l 588 1111 l 472 1261 l 381 1261 l 532 1061 l 643 1061 z "},"Ġ":{"ha":1082,"x_min":0,"x_max":0,"o":"m 946 876 b 590 1008 863 958 746 1008 b 78 492 297 1008 78 790 b 590 -25 78 193 293 -25 b 957 71 724 -25 850 7 l 957 514 l 628 514 l 628 426 l 857 426 l 857 128 b 592 64 800 90 703 64 b 183 492 339 64 183 263 b 592 921 183 721 339 921 b 876 807 714 921 808 879 z m 657 1178 b 590 1244 657 1217 624 1244 b 524 1178 557 1244 524 1217 b 590 1111 524 1139 557 1111 b 657 1178 624 1111 657 1139 z "},"Ŀ":{"ha":708,"x_min":0,"x_max":0,"o":"m 231 983 l 131 983 l 131 0 l 689 0 l 689 89 l 231 89 z m 524 594 b 457 661 524 633 490 661 b 390 594 424 661 390 633 b 457 528 390 556 424 528 b 524 594 490 528 524 556 z "},"Ħ":{"ha":997,"x_min":0,"x_max":0,"o":"m 131 0 l 231 0 l 231 465 l 767 465 l 767 0 l 867 0 l 867 983 l 767 983 l 767 764 l 231 764 l 231 983 l 131 983 z m 231 557 l 231 694 l 767 694 l 767 557 z "},"ė":{"ha":794,"x_min":0,"x_max":0,"o":"m 178 375 b 406 588 186 486 279 588 b 621 375 540 588 615 497 z m 717 344 b 406 667 717 522 610 667 b 78 325 221 667 78 521 b 414 -17 78 129 221 -17 b 693 121 521 -17 617 24 l 622 176 b 414 64 586 118 511 64 b 176 300 281 64 179 169 l 715 300 b 717 344 717 317 717 332 z m 475 900 b 408 967 475 939 442 967 b 342 900 375 967 342 939 b 408 833 342 861 375 833 b 475 900 442 833 475 861 z "},"Ć":{"ha":1000,"x_min":0,"x_max":0,"o":"m 881 208 b 592 63 813 107 704 63 b 183 492 339 63 183 263 b 592 921 183 721 338 921 b 857 792 717 921 815 856 l 940 853 b 590 1008 872 949 735 1008 b 78 492 297 1008 78 790 b 590 -25 78 193 293 -25 b 958 158 767 -25 893 60 z m 778 1261 l 651 1261 l 513 1061 l 594 1061 z "},"∙":{"ha":361,"x_min":0,"x_max":0,"o":"m 256 436 b 181 511 256 475 225 511 b 106 436 136 511 106 475 b 181 361 106 397 136 361 b 256 436 225 361 256 397 z "},"Ì":{"ha":361,"x_min":0,"x_max":0,"o":"m 231 983 l 131 983 l 131 0 l 231 0 z m 147 1061 l 229 1061 l 90 1261 l -36 1261 z "},"ś":{"ha":617,"x_min":0,"x_max":0,"o":"m 543 550 b 315 667 501 624 406 667 b 83 478 197 667 83 610 b 269 303 83 354 193 321 b 461 178 393 274 461 246 b 308 64 461 93 389 64 b 128 165 232 64 161 108 l 53 110 b 310 -17 113 22 211 -17 b 554 185 429 -17 554 36 b 329 375 554 286 482 343 b 174 486 222 397 174 425 b 311 588 174 558 243 588 b 471 496 383 588 443 550 z m 528 983 l 401 983 l 263 783 l 344 783 z "},"ĕ":{"ha":794,"x_min":0,"x_max":0,"o":"m 178 375 b 406 588 186 486 279 588 b 621 375 540 588 615 497 z m 717 344 b 406 667 717 522 610 667 b 78 325 221 667 78 521 b 414 -17 78 129 221 -17 b 693 121 521 -17 617 24 l 622 176 b 414 64 586 118 511 64 b 176 300 281 64 179 169 l 715 300 b 717 344 717 317 717 332 z m 551 983 b 408 875 539 911 478 875 b 265 983 339 875 278 911 l 204 983 b 408 800 211 868 294 800 b 613 983 522 800 606 868 z "},"Ä":{"ha":972,"x_min":0,"x_max":0,"o":"m 231 258 l 739 258 l 847 0 l 958 0 l 536 983 l 439 983 l 14 0 l 124 0 z m 485 872 l 701 350 l 268 350 z m 283 1176 b 354 1106 283 1140 313 1106 b 425 1176 396 1106 425 1140 b 354 1247 425 1213 396 1247 b 283 1176 313 1247 283 1213 z m 550 1176 b 621 1106 550 1140 579 1106 b 692 1176 663 1106 692 1140 b 621 1247 692 1213 663 1247 b 550 1176 579 1247 550 1213 z "},"Ĺ":{"ha":708,"x_min":0,"x_max":0,"o":"m 231 983 l 131 983 l 131 0 l 689 0 l 689 89 l 231 89 z m 404 1261 l 278 1261 l 139 1061 l 221 1061 z "},"Ĥ":{"ha":997,"x_min":0,"x_max":0,"o":"m 131 0 l 231 0 l 231 465 l 767 465 l 767 0 l 867 0 l 867 983 l 767 983 l 767 557 l 231 557 l 231 983 l 131 983 z m 553 1261 l 442 1261 l 290 1061 l 382 1061 l 497 1211 l 613 1061 l 704 1061 z "},"ð":{"ha":849,"x_min":0,"x_max":0,"o":"m 167 325 b 411 583 167 471 261 583 b 657 325 563 583 657 471 b 411 67 657 179 563 67 b 167 325 261 67 167 179 z m 632 992 l 576 1040 l 435 967 b 296 1081 393 1006 344 1044 l 214 1029 b 353 922 254 1001 307 967 l 200 844 l 250 794 l 406 874 b 622 589 493 799 572 694 l 619 586 b 411 667 553 642 492 667 b 67 325 210 667 67 521 b 411 -17 67 129 210 -17 b 757 350 665 -17 757 183 b 489 917 757 569 640 776 z "},"ċ":{"ha":694,"x_min":0,"x_max":0,"o":"m 667 554 b 425 667 611 629 513 667 b 78 325 215 667 78 521 b 425 -17 78 129 215 -17 b 672 96 538 -17 617 28 l 601 149 b 425 64 564 99 507 64 b 178 325 274 64 178 178 b 426 588 178 474 275 588 b 593 501 497 588 563 551 z m 476 900 b 410 967 476 939 443 967 b 343 900 376 967 343 939 b 410 833 343 861 376 833 b 476 900 443 833 476 861 z "},"Õ":{"ha":1181,"x_min":0,"x_max":0,"o":"m 1103 492 b 590 1008 1103 790 883 1008 b 78 492 297 1008 78 790 b 590 -25 78 193 297 -25 b 1103 492 883 -25 1103 193 z m 997 492 b 590 64 997 263 843 64 b 183 492 338 64 183 263 b 590 921 183 721 338 921 b 997 492 843 921 997 721 z m 425 1078 b 493 1147 433 1113 451 1147 b 586 1115 522 1147 554 1132 b 688 1083 618 1099 654 1083 b 815 1228 771 1083 803 1156 l 756 1228 b 688 1158 747 1193 729 1158 b 594 1190 660 1158 628 1175 b 493 1222 561 1207 526 1222 b 365 1078 410 1222 378 1150 z "},"ę":{"ha":794,"x_min":0,"x_max":0,"o":"m 528 -204 b 457 -235 510 -224 482 -235 b 388 -168 419 -235 388 -207 b 483 -10 388 -117 422 -72 b 693 121 563 4 633 44 l 622 176 b 414 64 586 118 511 64 b 176 300 281 64 179 169 l 715 300 b 717 344 717 317 717 332 b 406 667 717 522 610 667 b 78 325 221 667 78 521 b 407 -17 78 131 218 -14 b 304 -192 356 -61 304 -122 b 429 -310 304 -262 364 -310 b 554 -260 475 -310 522 -290 z m 178 375 b 406 588 186 486 279 588 b 621 375 540 588 615 497 z "},"Î":{"ha":361,"x_min":0,"x_max":0,"o":"m 231 983 l 131 983 l 131 0 l 231 0 z m 236 1261 l 125 1261 l -26 1061 l 65 1061 l 181 1211 l 296 1061 l 388 1061 z "},"ĝ":{"ha":878,"x_min":0,"x_max":0,"o":"m 92 -203 b 404 -333 168 -283 285 -333 b 757 6 692 -333 757 -136 l 757 650 l 663 650 l 663 538 l 660 538 b 414 667 608 621 508 667 b 78 331 211 667 78 515 b 414 0 78 140 211 0 b 660 128 508 0 610 47 l 663 128 l 663 6 b 408 -250 663 -135 594 -250 b 160 -131 310 -250 211 -197 z m 178 333 b 424 588 178 469 267 588 b 674 333 569 588 674 469 b 424 81 674 183 569 81 b 178 333 267 81 178 197 z m 483 983 l 372 983 l 221 783 l 313 783 l 428 933 l 543 783 l 635 783 z "},"®":{"ha":833,"x_min":0,"x_max":0,"o":"m 100 685 b 417 372 100 510 242 372 b 733 685 592 372 733 510 b 417 1000 733 860 592 1000 b 100 685 242 1000 100 860 z m 150 685 b 417 951 150 832 269 951 b 683 685 564 951 683 832 b 417 418 683 539 564 418 b 150 685 269 418 150 539 z m 293 508 l 357 508 l 357 657 l 403 657 l 486 508 l 564 508 l 468 664 b 550 760 518 675 550 708 b 418 864 550 836 485 864 l 293 864 z m 357 708 l 357 810 l 415 810 b 486 761 449 810 486 800 b 408 708 486 718 444 708 z "},"Ě":{"ha":822,"x_min":0,"x_max":0,"o":"m 231 468 l 707 468 l 707 556 l 231 556 l 231 894 l 740 894 l 740 983 l 131 983 l 131 0 l 757 0 l 757 89 l 231 89 z m 647 1261 l 556 1261 l 440 1111 l 325 1261 l 233 1261 l 385 1061 l 496 1061 z "},"ř":{"ha":500,"x_min":0,"x_max":0,"o":"m 125 507 l 125 0 l 219 0 l 219 333 b 410 579 219 507 310 579 b 476 571 435 579 465 575 l 489 660 b 426 667 469 665 450 667 b 218 539 335 667 254 614 l 215 539 b 210 650 215 567 213 615 l 119 650 b 125 507 124 606 125 542 z m 506 983 l 414 983 l 299 833 l 183 983 l 92 983 l 243 783 l 354 783 z "},"Ĵ":{"ha":683,"x_min":0,"x_max":0,"o":"m 35 175 b 299 -25 58 58 157 -25 b 561 283 514 -25 561 156 l 561 983 l 461 983 l 461 290 b 288 63 461 172 425 63 b 128 200 200 63 143 124 z m 565 1261 l 454 1261 l 303 1061 l 394 1061 l 510 1211 l 625 1061 l 717 1061 z "},"Í":{"ha":361,"x_min":0,"x_max":0,"o":"m 231 983 l 131 983 l 131 0 l 231 0 z m 396 1261 l 269 1261 l 131 1061 l 213 1061 z "},"€":{"ha":806,"x_min":0,"x_max":0,"o":"m 710 879 l 744 964 b 538 1008 692 992 614 1008 b 125 651 336 1008 176 878 l 46 651 l 18 575 l 114 575 b 108 483 111 553 108 514 b 113 406 108 458 111 424 l 44 406 l 17 329 l 122 329 b 521 -25 154 147 297 -25 b 763 40 621 -25 701 -3 l 722 118 b 533 63 667 79 606 63 b 222 329 378 63 251 168 l 543 329 l 568 406 l 213 406 b 207 485 210 428 207 463 b 214 575 207 515 210 547 l 618 575 l 643 651 l 226 651 b 533 921 265 817 374 921 b 710 879 603 921 663 907 z "},"³":{"ha":514,"x_min":0,"x_max":0,"o":"m 190 672 l 228 672 b 361 571 294 672 361 646 b 250 469 361 503 307 469 b 133 554 196 469 151 500 l 54 528 b 250 394 92 436 163 394 b 444 571 354 394 444 456 b 349 713 444 640 407 690 b 428 842 396 738 428 783 b 251 1000 428 947 347 1000 b 75 893 181 1000 117 967 l 144 857 b 249 926 168 901 207 926 b 344 840 301 926 344 892 b 228 743 344 769 293 743 l 190 743 z "},"ÿ":{"ha":678,"x_min":0,"x_max":0,"o":"m 128 650 l 22 650 l 300 1 l 247 -135 b 122 -250 219 -208 186 -250 b 53 -239 97 -250 74 -246 l 43 -325 b 128 -333 71 -331 100 -333 b 332 -168 240 -333 293 -268 l 656 650 l 553 650 l 351 101 l 349 101 z m 146 899 b 217 828 146 863 175 828 b 288 899 258 828 288 863 b 217 969 288 935 258 969 b 146 899 175 969 146 935 z m 413 899 b 483 828 413 863 442 828 b 554 899 525 828 554 863 b 483 969 554 935 525 969 b 413 899 442 969 413 935 z "},"Ș":{"ha":783,"x_min":0,"x_max":0,"o":"m 686 889 b 408 1008 639 953 540 1008 b 94 738 264 1008 94 928 b 358 463 94 560 228 503 b 599 251 483 424 599 389 b 381 61 599 125 482 61 b 156 185 278 61 199 115 l 69 121 b 379 -25 140 24 260 -25 b 700 258 535 -25 700 61 b 408 546 700 456 547 500 b 194 739 299 582 194 614 b 404 924 194 865 307 924 b 607 825 497 924 565 885 z m 469 -62 l 371 -62 l 285 -319 l 364 -319 z "},"č":{"ha":694,"x_min":0,"x_max":0,"o":"m 667 554 b 425 667 611 629 513 667 b 78 325 215 667 78 521 b 425 -17 78 129 215 -17 b 672 96 538 -17 617 28 l 601 149 b 425 64 564 99 507 64 b 178 325 274 64 178 178 b 426 588 178 474 275 588 b 593 501 497 588 563 551 z m 629 983 l 538 983 l 422 833 l 307 983 l 215 983 l 367 783 l 478 783 z "},"Į":{"ha":361,"x_min":0,"x_max":0,"o":"m 256 -204 b 185 -235 238 -224 210 -235 b 115 -168 147 -235 115 -207 b 222 0 115 -114 154 -68 l 231 0 l 231 983 l 131 983 l 131 0 l 156 0 b 32 -192 99 -46 32 -114 b 157 -310 32 -262 92 -310 b 282 -260 203 -310 250 -290 z "},"ā":{"ha":742,"x_min":0,"x_max":0,"o":"m 535 399 b 76 181 297 399 76 381 b 301 -17 76 36 203 -17 b 538 106 406 -17 478 19 l 540 106 b 550 0 540 71 544 32 l 635 0 b 624 146 628 36 624 96 l 624 431 b 371 667 624 589 511 667 b 115 574 260 667 168 626 l 168 511 b 361 588 214 557 285 588 b 535 419 474 588 535 532 z m 535 325 l 535 276 b 326 61 535 161 460 61 b 174 185 253 61 174 92 b 507 325 174 308 353 325 z m 563 908 l 188 908 l 188 833 l 563 833 z "},"đ":{"ha":885,"x_min":0,"x_max":0,"o":"m 446 861 l 446 792 l 663 792 l 663 538 l 660 538 b 414 667 604 622 507 667 b 78 325 211 667 78 517 b 414 -17 78 133 211 -17 b 660 110 507 -17 604 28 l 663 110 l 663 0 l 757 0 l 757 792 l 835 792 l 835 861 l 757 861 l 757 1050 l 663 1050 l 663 861 z m 178 325 b 424 588 178 469 267 588 b 674 325 569 588 674 474 b 424 64 674 176 569 64 b 178 325 267 64 178 181 z "},"Ĳ":{"ha":1019,"x_min":0,"x_max":0,"o":"m 231 983 l 131 983 l 131 0 l 231 0 z m 371 175 b 635 -25 394 58 493 -25 b 897 283 850 -25 897 156 l 897 983 l 797 983 l 797 290 b 624 63 797 172 761 63 b 464 200 536 63 479 124 z "},"ã":{"ha":742,"x_min":0,"x_max":0,"o":"m 535 399 b 76 181 297 399 76 381 b 301 -17 76 36 203 -17 b 538 106 406 -17 478 19 l 540 106 b 550 0 540 71 544 32 l 635 0 b 624 146 628 36 624 96 l 624 431 b 371 667 624 589 511 667 b 115 574 260 667 168 626 l 168 511 b 361 588 214 557 285 588 b 535 419 474 588 535 532 z m 535 325 l 535 276 b 326 61 535 161 460 61 b 174 185 253 61 174 92 b 507 325 174 308 353 325 z m 203 800 b 271 869 211 835 229 869 b 364 838 300 869 332 854 b 465 806 396 821 432 806 b 593 950 549 806 581 878 l 533 950 b 465 881 525 915 507 881 b 372 913 438 881 406 897 b 271 944 339 929 304 944 b 143 800 188 944 156 872 z "},"Ķ":{"ha":872,"x_min":0,"x_max":0,"o":"m 231 983 l 131 983 l 131 0 l 231 0 l 231 524 l 232 524 l 724 0 l 871 0 l 347 538 l 843 983 l 700 983 l 232 542 l 231 542 z m 539 -62 l 440 -62 l 354 -319 l 433 -319 z "},"Ņ":{"ha":1061,"x_min":0,"x_max":0,"o":"m 256 983 l 131 983 l 131 0 l 231 0 l 231 846 l 233 846 l 806 0 l 931 0 l 931 983 l 831 983 l 831 146 l 828 146 z m 590 -62 l 492 -62 l 406 -319 l 485 -319 z "},"ç":{"ha":694,"x_min":0,"x_max":0,"o":"m 667 554 b 425 667 611 629 513 667 b 78 325 215 667 78 521 b 375 -14 78 144 194 7 l 299 -136 l 324 -157 b 383 -146 342 -150 364 -146 b 458 -200 429 -146 458 -164 b 369 -261 458 -246 399 -261 b 269 -242 335 -261 300 -256 l 247 -292 b 378 -319 286 -310 340 -319 b 542 -199 453 -319 542 -292 b 428 -99 542 -132 483 -99 b 379 -104 407 -99 393 -100 l 433 -17 b 672 96 542 -14 618 29 l 601 149 b 425 64 564 99 507 64 b 178 325 274 64 178 178 b 426 588 178 474 275 588 b 593 501 497 588 563 551 z "},"Ĩ":{"ha":361,"x_min":0,"x_max":0,"o":"m 231 983 l 131 983 l 131 0 l 231 0 z m 17 1078 b 85 1147 25 1113 43 1147 b 178 1115 114 1147 146 1132 b 279 1083 210 1099 246 1083 b 407 1228 363 1083 394 1156 l 347 1228 b 279 1158 339 1193 321 1158 b 186 1190 251 1158 219 1175 b 85 1222 153 1207 118 1222 b -43 1078 1 1222 -31 1150 z "},"þ":{"ha":879,"x_min":0,"x_max":0,"o":"m 464 -17 b 801 325 657 -17 801 129 b 464 667 801 521 657 667 b 222 538 371 667 278 622 l 219 538 l 219 1050 l 128 1050 l 128 -333 l 219 -333 l 219 110 l 222 110 b 464 -17 276 25 368 -17 z m 701 325 b 456 67 701 179 607 67 b 211 325 306 67 211 179 b 456 583 211 471 306 583 b 701 325 607 583 701 471 z "},"¦":{"ha":308,"x_min":0,"x_max":0,"o":"m 113 938 l 113 451 l 196 451 l 196 938 z m 113 243 l 113 -243 l 196 -243 l 196 243 z "},"Ę":{"ha":822,"x_min":0,"x_max":0,"o":"m 768 -204 b 697 -235 750 -224 722 -235 b 628 -168 660 -235 628 -207 b 735 0 628 -114 667 -68 l 757 0 l 757 89 l 231 89 l 231 468 l 707 468 l 707 556 l 231 556 l 231 894 l 740 894 l 740 983 l 131 983 l 131 0 l 668 0 b 544 -192 611 -46 544 -114 b 669 -310 544 -262 604 -310 b 794 -260 715 -310 763 -290 z "},"é":{"ha":794,"x_min":0,"x_max":0,"o":"m 178 375 b 406 588 186 486 279 588 b 621 375 540 588 615 497 z m 717 344 b 406 667 717 522 610 667 b 78 325 221 667 78 521 b 414 -17 78 129 221 -17 b 693 121 521 -17 617 24 l 622 176 b 414 64 586 118 511 64 b 176 300 281 64 179 169 l 715 300 b 717 344 717 317 717 332 z m 614 983 l 488 983 l 349 783 l 431 783 z "},"Ð":{"ha":1051,"x_min":0,"x_max":0,"o":"m 119 0 l 446 0 b 963 492 692 0 963 164 b 446 983 963 819 692 983 l 119 983 l 119 557 l 18 557 l 18 482 l 119 482 z m 219 482 l 578 482 l 578 557 l 219 557 l 219 892 l 414 892 b 854 492 714 892 854 694 b 414 92 854 289 714 92 l 219 92 z "},"Ļ":{"ha":708,"x_min":0,"x_max":0,"o":"m 231 983 l 131 983 l 131 0 l 689 0 l 689 89 l 231 89 z m 482 -62 l 383 -62 l 297 -319 l 376 -319 z "},"℮":{"ha":839,"x_min":0,"x_max":0,"o":"m 779 360 b 419 743 778 585 633 743 b 61 360 201 743 61 575 b 419 -24 61 146 201 -24 b 736 164 565 -24 651 32 l 688 193 b 419 26 618 76 535 26 b 218 108 339 26 272 54 l 218 360 z m 218 410 l 218 611 b 418 694 272 665 339 694 b 622 611 496 694 564 667 l 622 410 z "},"ë":{"ha":794,"x_min":0,"x_max":0,"o":"m 178 375 b 406 588 186 486 279 588 b 621 375 540 588 615 497 z m 717 344 b 406 667 717 522 610 667 b 78 325 221 667 78 521 b 414 -17 78 129 221 -17 b 693 121 521 -17 617 24 l 622 176 b 414 64 586 118 511 64 b 176 300 281 64 179 169 l 715 300 b 717 344 717 317 717 332 z m 211 899 b 282 828 211 863 240 828 b 353 899 324 828 353 863 b 282 969 353 935 324 969 b 211 899 240 969 211 935 z m 478 899 b 549 828 478 863 507 828 b 619 899 590 828 619 863 b 549 969 619 935 590 969 b 478 899 507 969 478 935 z "},"ê":{"ha":794,"x_min":0,"x_max":0,"o":"m 178 375 b 406 588 186 486 279 588 b 621 375 540 588 615 497 z m 717 344 b 406 667 717 522 610 667 b 78 325 221 667 78 521 b 414 -17 78 129 221 -17 b 693 121 521 -17 617 24 l 622 176 b 414 64 586 118 511 64 b 176 300 281 64 179 169 l 715 300 b 717 344 717 317 717 332 z m 471 983 l 360 983 l 208 783 l 300 783 l 415 933 l 531 783 l 622 783 z "},"ē":{"ha":794,"x_min":0,"x_max":0,"o":"m 178 375 b 406 588 186 486 279 588 b 621 375 540 588 615 497 z m 717 344 b 406 667 717 522 610 667 b 78 325 221 667 78 521 b 414 -17 78 129 221 -17 b 693 121 521 -17 617 24 l 622 176 b 414 64 586 118 511 64 b 176 300 281 64 179 169 l 715 300 b 717 344 717 317 717 332 z m 599 908 l 224 908 l 224 833 l 599 833 z "},"ĉ":{"ha":694,"x_min":0,"x_max":0,"o":"m 667 554 b 425 667 611 629 513 667 b 78 325 215 667 78 521 b 425 -17 78 129 215 -17 b 672 96 538 -17 617 28 l 601 149 b 425 64 564 99 507 64 b 178 325 274 64 178 178 b 426 588 178 474 275 588 b 593 501 497 588 563 551 z m 476 983 l 365 983 l 214 783 l 306 783 l 421 933 l 536 783 l 628 783 z "},"ŷ":{"ha":678,"x_min":0,"x_max":0,"o":"m 128 650 l 22 650 l 300 1 l 247 -135 b 122 -250 219 -208 186 -250 b 53 -239 97 -250 74 -246 l 43 -325 b 128 -333 71 -331 100 -333 b 332 -168 240 -333 293 -268 l 656 650 l 553 650 l 351 101 l 349 101 z m 406 983 l 294 983 l 143 783 l 235 783 l 350 933 l 465 783 l 557 783 z "},"Ń":{"ha":1061,"x_min":0,"x_max":0,"o":"m 256 983 l 131 983 l 131 0 l 231 0 l 231 846 l 233 846 l 806 0 l 931 0 l 931 983 l 831 983 l 831 146 l 828 146 z m 743 1261 l 617 1261 l 478 1061 l 560 1061 z "},"ŗ":{"ha":500,"x_min":0,"x_max":0,"o":"m 125 507 l 125 0 l 219 0 l 219 333 b 410 579 219 507 310 579 b 476 571 435 579 465 575 l 489 660 b 426 667 469 665 450 667 b 218 539 335 667 254 614 l 215 539 b 210 650 215 567 213 615 l 119 650 b 125 507 124 606 125 542 z m 244 -62 l 146 -62 l 60 -319 l 139 -319 z "},"è":{"ha":794,"x_min":0,"x_max":0,"o":"m 178 375 b 406 588 186 486 279 588 b 621 375 540 588 615 497 z m 717 344 b 406 667 717 522 610 667 b 78 325 221 667 78 521 b 414 -17 78 129 221 -17 b 693 121 521 -17 617 24 l 622 176 b 414 64 586 118 511 64 b 176 300 281 64 179 169 l 715 300 b 717 344 717 317 717 332 z m 392 783 l 474 783 l 335 983 l 208 983 z "},"ţ":{"ha":440,"x_min":0,"x_max":0,"o":"m 418 650 l 235 650 l 235 833 l 140 833 l 140 650 l 6 650 l 6 571 l 140 571 l 140 165 b 307 -8 140 22 238 -8 b 418 11 350 -8 385 -1 l 414 93 b 332 72 389 81 358 72 b 235 192 275 72 235 94 l 235 571 l 418 571 z m 347 -62 l 249 -62 l 163 -319 l 242 -319 z "},"ď":{"ha":938,"x_min":0,"x_max":0,"o":"m 660 110 l 663 110 l 663 0 l 757 0 l 757 1050 l 663 1050 l 663 538 l 660 538 b 414 667 604 622 507 667 b 78 325 211 667 78 517 b 414 -17 78 133 211 -17 b 660 110 507 -17 604 28 z m 178 325 b 424 588 178 469 267 588 b 674 325 569 588 674 474 b 424 64 674 176 569 64 b 178 325 267 64 178 181 z m 1019 983 l 921 983 l 835 726 l 914 726 z "},"ğ":{"ha":878,"x_min":0,"x_max":0,"o":"m 92 -203 b 404 -333 168 -283 285 -333 b 757 6 692 -333 757 -136 l 757 650 l 663 650 l 663 538 l 660 538 b 414 667 608 621 508 667 b 78 331 211 667 78 515 b 414 0 78 140 211 0 b 660 128 508 0 610 47 l 663 128 l 663 6 b 408 -250 663 -135 594 -250 b 160 -131 310 -250 211 -197 z m 178 333 b 424 588 178 469 267 588 b 674 333 569 588 674 469 b 424 81 674 183 569 81 b 178 333 267 81 178 197 z m 574 983 b 431 875 561 911 500 875 b 288 983 361 875 300 911 l 226 983 b 431 800 233 868 317 800 b 635 983 544 800 628 868 z "},"°":{"ha":556,"x_min":0,"x_max":0,"o":"m 485 793 b 278 1000 485 913 397 1000 b 71 793 158 1000 71 913 b 278 586 71 674 158 586 b 485 793 397 586 485 674 z m 418 793 b 278 653 418 715 356 653 b 138 793 200 653 138 715 b 278 933 138 871 200 933 b 418 793 356 933 418 871 z "},"ć":{"ha":694,"x_min":0,"x_max":0,"o":"m 667 554 b 425 667 611 629 513 667 b 78 325 215 667 78 521 b 425 -17 78 129 215 -17 b 672 96 538 -17 617 28 l 601 149 b 425 64 564 99 507 64 b 178 325 274 64 178 178 b 426 588 178 474 275 588 b 593 501 497 588 563 551 z m 613 983 l 486 983 l 347 783 l 429 783 z "},"©":{"ha":1111,"x_min":0,"x_max":0,"o":"m 806 311 b 569 185 761 243 679 185 b 256 499 389 185 256 317 b 569 811 256 679 389 811 b 794 701 658 811 749 769 l 722 646 b 572 728 696 686 636 728 b 351 499 436 728 351 619 b 569 268 351 376 433 268 b 733 358 628 268 689 294 z m 28 490 b 557 1014 28 782 265 1014 b 1083 490 847 1014 1083 782 b 557 -31 1083 200 847 -31 b 28 490 265 -31 28 200 z m 111 490 b 557 47 111 246 311 47 b 1000 490 801 47 1000 246 b 557 936 1000 736 801 936 b 111 490 311 936 111 736 z "},"ģ":{"ha":878,"x_min":0,"x_max":0,"o":"m 92 -203 b 404 -333 168 -283 285 -333 b 757 6 692 -333 757 -136 l 757 650 l 663 650 l 663 538 l 660 538 b 414 667 608 621 508 667 b 78 331 211 667 78 515 b 414 0 78 140 211 0 b 660 128 508 0 610 47 l 663 128 l 663 6 b 408 -250 663 -135 594 -250 b 160 -131 310 -250 211 -197 z m 178 333 b 424 588 178 469 267 588 b 674 333 569 588 674 469 b 424 81 674 183 569 81 b 178 333 267 81 178 197 z m 390 783 l 489 783 l 575 1040 l 496 1040 z "}," ":{"ha":347,"x_min":0,"x_max":0,"o":""},"\u0000":{"ha":694,"x_min":0,"x_max":0,"o":""}}}
